<?xml version="1.0" encoding="UTF-8" standalone="no"?>
<!-- Created with Inkscape (http://www.inkscape.org/) -->

<svg
   xmlns:dc="http://purl.org/dc/elements/1.1/"
   xmlns:cc="http://creativecommons.org/ns#"
   xmlns:rdf="http://www.w3.org/1999/02/22-rdf-syntax-ns#"
   xmlns:svg="http://www.w3.org/2000/svg"
   xmlns="http://www.w3.org/2000/svg"
   xmlns:xlink="http://www.w3.org/1999/xlink"
   xmlns:sodipodi="http://sodipodi.sourceforge.net/DTD/sodipodi-0.dtd"
   xmlns:inkscape="http://www.inkscape.org/namespaces/inkscape"
   width="36"
   height="36"
   id="svg2"
   version="1.1"
   inkscape:version="0.48.2 r9819"
   sodipodi:docname="companys.svg"
   inkscape:export-filename="M:\zbase\zbase\gui\toolbar\companys.png"
   inkscape:export-xdpi="90"
   inkscape:export-ydpi="90">
  <defs
     id="defs4">
    <linearGradient
       id="linearGradient3961">
      <stop
         id="stop3963"
         offset="0"
         style="stop-color:#ffffff;stop-opacity:1;" />
      <stop
         style="stop-color:#ffffff;stop-opacity:0;"
         offset="0.44999999"
         id="stop3965" />
      <stop
         style="stop-color:#000000;stop-opacity:0;"
         offset="0.55000001"
         id="stop3967" />
      <stop
         id="stop3969"
         offset="1"
         style="stop-color:#000000;stop-opacity:0.18699187" />
    </linearGradient>
    <linearGradient
       inkscape:collect="always"
       id="linearGradient3782">
      <stop
         style="stop-color:#000000;stop-opacity:1;"
         offset="0"
         id="stop3784" />
      <stop
         style="stop-color:#000000;stop-opacity:0;"
         offset="1"
         id="stop3786" />
    </linearGradient>
    <linearGradient
       id="linearGradient3757">
      <stop
         style="stop-color:#000000;stop-opacity:1;"
         offset="0"
         id="stop3759" />
      <stop
         style="stop-color:#000000;stop-opacity:0;"
         offset="1"
         id="stop3761" />
    </linearGradient>
    <linearGradient
       inkscape:collect="always"
       xlink:href="#linearGradient3757"
       id="linearGradient3763"
       x1="6"
       y1="36"
       x2="6"
       y2="0"
       gradientUnits="userSpaceOnUse"
       gradientTransform="translate(0.00235075,1016.3622)" />
    <linearGradient
       inkscape:collect="always"
       xlink:href="#linearGradient3757-7"
       id="linearGradient3763-1"
       x1="6"
       y1="36"
       x2="6"
       y2="0"
       gradientUnits="userSpaceOnUse" />
    <linearGradient
       id="linearGradient3757-7">
      <stop
         style="stop-color:#000000;stop-opacity:1;"
         offset="0"
         id="stop3759-4" />
      <stop
         style="stop-color:#000000;stop-opacity:0.75"
         offset="1"
         id="stop3761-0" />
    </linearGradient>
    <linearGradient
       gradientTransform="translate(24,1016.3622)"
       inkscape:collect="always"
       xlink:href="#linearGradient3757-8"
       id="linearGradient3763-4"
       x1="6"
       y1="36"
       x2="6"
       y2="0"
       gradientUnits="userSpaceOnUse" />
    <linearGradient
       id="linearGradient3757-8">
      <stop
         style="stop-color:#ffffff;stop-opacity:1;"
         offset="0"
         id="stop3759-8" />
      <stop
         id="stop3897"
         offset="0.44999999"
         style="stop-color:#ffffff;stop-opacity:0;" />
      <stop
         id="stop3895"
         offset="0.55000001"
         style="stop-color:#000000;stop-opacity:0;" />
      <stop
         style="stop-color:#000000;stop-opacity:1;"
         offset="1"
         id="stop3761-2" />
    </linearGradient>
    <linearGradient
       inkscape:collect="always"
       xlink:href="#linearGradient3782"
       id="linearGradient3788"
       x1="290.35956"
       y1="325.79031"
       x2="290.35956"
       y2="287.21933"
       gradientUnits="userSpaceOnUse" />
    <linearGradient
       inkscape:collect="always"
       xlink:href="#linearGradient3782-8"
       id="linearGradient3788-4"
       x1="290.35956"
       y1="325.79031"
       x2="290.35956"
       y2="287.21933"
       gradientUnits="userSpaceOnUse" />
    <linearGradient
       inkscape:collect="always"
       id="linearGradient3782-8">
      <stop
         style="stop-color:#000000;stop-opacity:1;"
         offset="0"
         id="stop3784-8" />
      <stop
         style="stop-color:#000000;stop-opacity:0;"
         offset="1"
         id="stop3786-2" />
    </linearGradient>
    <linearGradient
       inkscape:collect="always"
       xlink:href="#linearGradient3782-8"
       id="linearGradient3804"
       x1="290.35956"
       y1="325.79031"
       x2="290.35956"
       y2="287.21933"
       gradientUnits="userSpaceOnUse" />
    <linearGradient
       inkscape:collect="always"
       xlink:href="#linearGradient3757-8"
       id="linearGradient3893"
       x1="12"
       y1="1018.3622"
       x2="24"
       y2="1042.3622"
       gradientUnits="userSpaceOnUse" />
    <linearGradient
       inkscape:collect="always"
       xlink:href="#linearGradient3757-8"
       id="linearGradient3932"
       x1="9.5"
       y1="1045.3622"
       x2="26.5"
       y2="1045.3622"
       gradientUnits="userSpaceOnUse" />
    <linearGradient
       inkscape:collect="always"
       xlink:href="#linearGradient3961"
       id="linearGradient3959"
       x1="2"
       y1="1046.3622"
       x2="38"
       y2="1054.3622"
       gradientUnits="userSpaceOnUse" />
  </defs>
  <sodipodi:namedview
     id="base"
     pagecolor="#ffffff"
     bordercolor="#666666"
     borderopacity="1.0"
     inkscape:pageopacity="0.0"
     inkscape:pageshadow="2"
     inkscape:zoom="5.6"
     inkscape:cx="64.810589"
     inkscape:cy="20.38228"
     inkscape:document-units="px"
     inkscape:current-layer="layer1"
     showgrid="true"
     inkscape:window-width="1680"
     inkscape:window-height="988"
     inkscape:window-x="-8"
     inkscape:window-y="-8"
     inkscape:window-maximized="1">
    <inkscape:grid
       type="xygrid"
       id="grid2985"
       empspacing="4"
       visible="true"
       enabled="true"
       snapvisiblegridlinesonly="true"
       spacingx="0.5px"
       spacingy="0.5px" />
  </sodipodi:namedview>
  <metadata
     id="metadata7">
    <rdf:RDF>
      <cc:Work
         rdf:about="">
        <dc:format>image/svg+xml</dc:format>
        <dc:type
           rdf:resource="http://purl.org/dc/dcmitype/StillImage" />
        <dc:title />
      </cc:Work>
    </rdf:RDF>
  </metadata>
  <g
     inkscape:label="Layer 1"
     inkscape:groupmode="layer"
     id="layer1"
     transform="translate(0,-1016.3622)">
    <path
       id="path3776-1"
       style="fill:#353535;fill-opacity:1;stroke:#000000;stroke-width:1px;stroke-linecap:butt;stroke-linejoin:miter;stroke-opacity:1"
       d="m 26,1044.3622 8,2 2,2 1,4 0,2 -13,0 2,-6 z m -16,0 -8,2 -2,2 -1,4 0,2 13,0 -2,-6 z" />
    <path
       style="fill:#ffffff;fill-opacity:1;stroke:#000000;stroke-width:1px;stroke-linecap:butt;stroke-linejoin:miter;stroke-opacity:1"
       d="m 26,1044.3622 -3.5,-1.5 -4.5,1.5 0,10 6,0 2,-6 z"
       id="path3778-7"
       inkscape:connector-curvature="0" />
    <path
       style="fill:#ffffff;fill-opacity:1;stroke:#000000;stroke-width:1px;stroke-linecap:butt;stroke-linejoin:miter;stroke-opacity:1"
       d="m 10,1044.3622 3.5,-1.5 4.5,1.5 0,10 -6,0 -2,-6 z"
       id="path3778"
       inkscape:connector-curvature="0" />
    <path
       id="path3780"
       style="fill:#ffffff;fill-opacity:1;stroke:#000000;stroke-width:1px;stroke-linecap:butt;stroke-linejoin:miter;stroke-opacity:1"
       d="m 10,1040.3622 3.5,2.5 4.5,1.5 -3.5,6 -4.5,-3.5 z m 16,0 -3.5,2.5 -4.5,1.5 3.5,6 4.5,-3.5 z" />
    <path
       style="fill:#aa0000;stroke:#000000;stroke-width:1px;stroke-linecap:butt;stroke-linejoin:miter;stroke-opacity:1"
       d="m 15.5,1048.8622 2.5,-4.5 2.5,4.5 -1,1.5 -3,0 z"
       id="path3782"
       inkscape:connector-curvature="0" />
    <path
       style="fill:#aa0000;stroke:#000000;stroke-width:1px;stroke-linecap:butt;stroke-linejoin:miter;stroke-opacity:1"
       d="m 16.5,1050.3622 -1,4 5,0 -1,-4 z"
       id="path3784"
       inkscape:connector-curvature="0" />
    <path
       style="fill:#dcbf99;stroke:#000000;stroke-width:1px;stroke-linecap:butt;stroke-linejoin:miter;stroke-opacity:1;fill-opacity:1"
       d="m 10,4 -2,4 0,10 2,6 3.5,2.5 L 18,28 22.5,26.5 26,24 28,18 28,8 26,4 22,2 14,2 z"
       id="path3810"
       inkscape:connector-curvature="0"
       transform="translate(0,1016.3622)" />
    <path
       style="fill:none;stroke:#000000;stroke-width:1px;stroke-linecap:butt;stroke-linejoin:miter;stroke-opacity:1"
       d="m 10,12 3,-1.5 3.5,1.5"
       id="path3832"
       inkscape:connector-curvature="0"
       transform="translate(0,1016.3622)" />
    <path
       style="fill:none;stroke:#000000;stroke-width:1px;stroke-linecap:butt;stroke-linejoin:miter;stroke-opacity:1"
       d="m 17,1030.3622 0,4"
       id="path3834"
       inkscape:connector-curvature="0" />
    <path
       style="fill:none;stroke:#000000;stroke-width:1px;stroke-linecap:butt;stroke-linejoin:miter;stroke-opacity:1"
       d="m 16,20 2,0.5 2,-0.5"
       id="path3836"
       inkscape:connector-curvature="0"
       transform="translate(0,1016.3622)" />
    <path
       style="fill:none;stroke:#000000;stroke-width:1px;stroke-linecap:butt;stroke-linejoin:miter;stroke-opacity:1"
       d="m 26,1028.3622 -3,-1.5 -3.5,1.5"
       id="path3832-9"
       inkscape:connector-curvature="0" />
    <path
       style="fill:none;stroke:#000000;stroke-width:1px;stroke-linecap:butt;stroke-linejoin:miter;stroke-opacity:1"
       d="m 16,24 4,0"
       id="path3867"
       inkscape:connector-curvature="0"
       transform="translate(0,1016.3622)" />
    <path
       inkscape:connector-curvature="0"
       id="path3780-7"
       style="fill:url(#linearGradient3932);fill-opacity:1;stroke:#000000;stroke-width:1px;stroke-linecap:butt;stroke-linejoin:miter;stroke-opacity:1;opacity:0.59349593"
       d="m 10,1040.3622 3.5,2.5 4.5,1.5 -3.5,6 -4.5,-3.5 z m 16,0 -3.5,2.5 -4.5,1.5 3.5,6 4.5,-3.5 z" />
    <path
       inkscape:connector-curvature="0"
       id="path3776-1-9"
       style="opacity:0.95999995;fill:url(#linearGradient3959);fill-opacity:1;stroke:#000000;stroke-width:1px;stroke-linecap:butt;stroke-linejoin:miter;stroke-opacity:1"
       d="m 26,1044.3622 8,2 2,2 1,4 0,2 -13,0 2,-6 z m -16,0 -8,2 -2,2 -1,4 0,2 13,0 -2,-6 z" />
    <path
       style="fill:none;stroke:#000000;stroke-width:1px;stroke-linecap:butt;stroke-linejoin:miter;stroke-opacity:1"
       d="m 12,13 2,0"
       id="path3031"
       inkscape:connector-curvature="0"
       transform="translate(0,1016.3622)" />
    <path
       style="fill:none;stroke:#000000;stroke-width:1px;stroke-linecap:butt;stroke-linejoin:miter;stroke-opacity:1"
       d="m 22,13 c 0.5,0 2,0 2,0"
       id="path3033"
       inkscape:connector-curvature="0"
       transform="translate(0,1016.3622)" />
    <path
       style="fill:url(#linearGradient3893);fill-opacity:1;stroke:#000000;stroke-width:1px;stroke-linecap:butt;stroke-linejoin:miter;stroke-opacity:1;opacity:0.43089431000000000"
       d="m 10,1020.3622 -2,4 0,10 2,6 3.5,2.5 4.5,1.5 4.5,-1.5 3.5,-2.5 2,-6 0,-10 -2,-4 -4,-2 -8,0 z"
       id="path3810-4"
       inkscape:connector-curvature="0" />
    <path
       style="fill:#bbbbbb;stroke:#000000;stroke-width:1px;stroke-linecap:butt;stroke-linejoin:miter;stroke-opacity:1;fill-opacity:1"
       d="m 10,6 -2,0 -2,2 0,4 2,2 2,-2 z"
       id="path3812"
       inkscape:connector-curvature="0"
       transform="translate(0,1016.3622)" />
    <path
       style="fill:#bbbbbb;fill-opacity:1;stroke:#000000;stroke-width:1px;stroke-linecap:butt;stroke-linejoin:miter;stroke-opacity:1"
       d="m 26,1022.3622 2,0 2,2 0,4 -2,2 -2,-2 z"
       id="path3812-0"
       inkscape:connector-curvature="0" />
  </g>
</svg>
