<?xml version="1.0" encoding="UTF-8" standalone="no"?>
<!-- Created with Inkscape (http://www.inkscape.org/) -->

<svg
   xmlns:dc="http://purl.org/dc/elements/1.1/"
   xmlns:cc="http://creativecommons.org/ns#"
   xmlns:rdf="http://www.w3.org/1999/02/22-rdf-syntax-ns#"
   xmlns:svg="http://www.w3.org/2000/svg"
   xmlns="http://www.w3.org/2000/svg"
   xmlns:xlink="http://www.w3.org/1999/xlink"
   xmlns:sodipodi="http://sodipodi.sourceforge.net/DTD/sodipodi-0.dtd"
   xmlns:inkscape="http://www.inkscape.org/namespaces/inkscape"
   width="36"
   height="36"
   id="svg2"
   version="1.1"
   inkscape:version="0.48.2 r9819"
   sodipodi:docname="finances.svg"
   inkscape:export-filename="M:\zbase\zbase\gui\toolbar\finances.png"
   inkscape:export-xdpi="90"
   inkscape:export-ydpi="90">
  <defs
     id="defs4">
    <linearGradient
       id="linearGradient3757">
      <stop
         style="stop-color:#000000;stop-opacity:1;"
         offset="0"
         id="stop3759" />
      <stop
         style="stop-color:#000000;stop-opacity:0;"
         offset="1"
         id="stop3761" />
    </linearGradient>
    <linearGradient
       inkscape:collect="always"
       xlink:href="#linearGradient3757-7"
       id="linearGradient3763-1"
       x1="6"
       y1="36"
       x2="6"
       y2="0"
       gradientUnits="userSpaceOnUse" />
    <linearGradient
       id="linearGradient3757-7">
      <stop
         style="stop-color:#000000;stop-opacity:1;"
         offset="0"
         id="stop3759-4" />
      <stop
         style="stop-color:#000000;stop-opacity:0.75"
         offset="1"
         id="stop3761-0" />
    </linearGradient>
    <linearGradient
       gradientTransform="translate(24,1016.3622)"
       inkscape:collect="always"
       xlink:href="#linearGradient3757-8"
       id="linearGradient3763-4"
       x1="6"
       y1="36"
       x2="6"
       y2="0"
       gradientUnits="userSpaceOnUse" />
    <linearGradient
       id="linearGradient3757-8">
      <stop
         style="stop-color:#000000;stop-opacity:1;"
         offset="0"
         id="stop3759-8" />
      <stop
         style="stop-color:#000000;stop-opacity:0;"
         offset="1"
         id="stop3761-2" />
    </linearGradient>
    <linearGradient
       inkscape:collect="always"
       xlink:href="#linearGradient3757-4"
       id="linearGradient3763-17"
       x1="6"
       y1="36"
       x2="6"
       y2="0"
       gradientUnits="userSpaceOnUse" />
    <linearGradient
       id="linearGradient3757-4">
      <stop
         style="stop-color:#000000;stop-opacity:1;"
         offset="0"
         id="stop3759-0" />
      <stop
         style="stop-color:#000000;stop-opacity:0;"
         offset="1"
         id="stop3761-9" />
    </linearGradient>
    <linearGradient
       inkscape:collect="always"
       xlink:href="#linearGradient3757-0"
       id="linearGradient3763-174"
       x1="6"
       y1="36"
       x2="6"
       y2="0"
       gradientUnits="userSpaceOnUse" />
    <linearGradient
       id="linearGradient3757-0">
      <stop
         style="stop-color:#000000;stop-opacity:1;"
         offset="0"
         id="stop3759-9" />
      <stop
         style="stop-color:#000000;stop-opacity:0;"
         offset="1"
         id="stop3761-4" />
    </linearGradient>
    <linearGradient
       id="linearGradient3757-2">
      <stop
         style="stop-color:#000000;stop-opacity:1;"
         offset="0"
         id="stop3759-45" />
      <stop
         style="stop-color:#000000;stop-opacity:0;"
         offset="1"
         id="stop3761-5" />
    </linearGradient>
    <linearGradient
       inkscape:collect="always"
       xlink:href="#linearGradient3757-9"
       id="linearGradient3763-1740"
       x1="6"
       y1="36"
       x2="6"
       y2="0"
       gradientUnits="userSpaceOnUse" />
    <linearGradient
       id="linearGradient3757-9">
      <stop
         style="stop-color:#000000;stop-opacity:1;"
         offset="0"
         id="stop3759-48" />
      <stop
         style="stop-color:#000000;stop-opacity:0;"
         offset="1"
         id="stop3761-8" />
    </linearGradient>
    <linearGradient
       inkscape:collect="always"
       xlink:href="#linearGradient3931"
       id="linearGradient3949"
       x1="14"
       y1="1052.3622"
       x2="10"
       y2="1042.3622"
       gradientUnits="userSpaceOnUse"
       gradientTransform="translate(-24.5,11)" />
    <linearGradient
       id="linearGradient3931">
      <stop
         style="stop-color:#000000;stop-opacity:0.50196081;"
         offset="0"
         id="stop3933" />
      <stop
         id="stop3941"
         offset="0.44999999"
         style="stop-color:#000000;stop-opacity:0;" />
      <stop
         id="stop3939"
         offset="0.55000001"
         style="stop-color:#ffffff;stop-opacity:0;" />
      <stop
         style="stop-color:#ffffff;stop-opacity:0.50196081;"
         offset="1"
         id="stop3935" />
    </linearGradient>
    <linearGradient
       id="linearGradient3047">
      <stop
         style="stop-color:#000000;stop-opacity:0.50196081;"
         offset="0"
         id="stop3049" />
      <stop
         id="stop3051"
         offset="0.44999999"
         style="stop-color:#000000;stop-opacity:0;" />
      <stop
         id="stop3053"
         offset="0.55000001"
         style="stop-color:#ffffff;stop-opacity:0;" />
      <stop
         style="stop-color:#ffffff;stop-opacity:0.50196081;"
         offset="1"
         id="stop3055" />
    </linearGradient>
    <linearGradient
       inkscape:collect="always"
       xlink:href="#linearGradient3931"
       id="linearGradient3989"
       x1="10"
       y1="1042.3622"
       x2="22"
       y2="1026.3622"
       gradientUnits="userSpaceOnUse"
       gradientTransform="translate(-24.5,11)" />
    <linearGradient
       id="linearGradient3058">
      <stop
         style="stop-color:#000000;stop-opacity:0.50196081;"
         offset="0"
         id="stop3060" />
      <stop
         id="stop3062"
         offset="0.44999999"
         style="stop-color:#000000;stop-opacity:0;" />
      <stop
         id="stop3064"
         offset="0.55000001"
         style="stop-color:#ffffff;stop-opacity:0;" />
      <stop
         style="stop-color:#ffffff;stop-opacity:0.50196081;"
         offset="1"
         id="stop3066" />
    </linearGradient>
    <linearGradient
       inkscape:collect="always"
       xlink:href="#linearGradient3931"
       id="linearGradient3997"
       x1="10"
       y1="1032.3622"
       x2="6"
       y2="1024.3622"
       gradientUnits="userSpaceOnUse"
       gradientTransform="translate(-24.5,11)" />
    <linearGradient
       id="linearGradient3069">
      <stop
         style="stop-color:#000000;stop-opacity:0.50196081;"
         offset="0"
         id="stop3071" />
      <stop
         id="stop3073"
         offset="0.44999999"
         style="stop-color:#000000;stop-opacity:0;" />
      <stop
         id="stop3075"
         offset="0.55000001"
         style="stop-color:#ffffff;stop-opacity:0;" />
      <stop
         style="stop-color:#ffffff;stop-opacity:0.50196081;"
         offset="1"
         id="stop3077" />
    </linearGradient>
    <linearGradient
       id="linearGradient3931-5">
      <stop
         style="stop-color:#000000;stop-opacity:0.50196081;"
         offset="0"
         id="stop3933-5" />
      <stop
         id="stop3941-1"
         offset="0.44999999"
         style="stop-color:#000000;stop-opacity:0;" />
      <stop
         id="stop3939-7"
         offset="0.55000001"
         style="stop-color:#ffffff;stop-opacity:0;" />
      <stop
         style="stop-color:#ffffff;stop-opacity:0.50196081;"
         offset="1"
         id="stop3935-1" />
    </linearGradient>
    <linearGradient
       inkscape:collect="always"
       xlink:href="#linearGradient3047"
       id="linearGradient4047"
       x1="20"
       y1="1035.3622"
       x2="35"
       y2="1035.3622"
       gradientUnits="userSpaceOnUse"
       gradientTransform="translate(1,-3)" />
    <linearGradient
       gradientTransform="translate(1,-5)"
       inkscape:collect="always"
       xlink:href="#linearGradient3047-4"
       id="linearGradient4047-1"
       x1="20"
       y1="1035.3622"
       x2="35"
       y2="1035.3622"
       gradientUnits="userSpaceOnUse" />
    <linearGradient
       id="linearGradient3047-4">
      <stop
         style="stop-color:#000000;stop-opacity:0.50196081;"
         offset="0"
         id="stop3049-9" />
      <stop
         id="stop3051-8"
         offset="0.44999999"
         style="stop-color:#000000;stop-opacity:0;" />
      <stop
         id="stop3053-2"
         offset="0.55000001"
         style="stop-color:#ffffff;stop-opacity:0;" />
      <stop
         style="stop-color:#ffffff;stop-opacity:0.50196081;"
         offset="1"
         id="stop3055-4" />
    </linearGradient>
    <linearGradient
       gradientTransform="translate(1,-9)"
       inkscape:collect="always"
       xlink:href="#linearGradient3047-4-8"
       id="linearGradient4047-1-9"
       x1="20"
       y1="1035.3622"
       x2="35"
       y2="1035.3622"
       gradientUnits="userSpaceOnUse" />
    <linearGradient
       id="linearGradient3047-4-8">
      <stop
         style="stop-color:#000000;stop-opacity:0.50196081;"
         offset="0"
         id="stop3049-9-3" />
      <stop
         id="stop3051-8-8"
         offset="0.44999999"
         style="stop-color:#000000;stop-opacity:0;" />
      <stop
         id="stop3053-2-6"
         offset="0.55000001"
         style="stop-color:#ffffff;stop-opacity:0;" />
      <stop
         style="stop-color:#ffffff;stop-opacity:0.50196081;"
         offset="1"
         id="stop3055-4-9" />
    </linearGradient>
    <linearGradient
       gradientTransform="translate(-1,-1)"
       inkscape:collect="always"
       xlink:href="#linearGradient3047-6"
       id="linearGradient4047-8"
       x1="20"
       y1="1035.3622"
       x2="35"
       y2="1035.3622"
       gradientUnits="userSpaceOnUse" />
    <linearGradient
       id="linearGradient3047-6">
      <stop
         style="stop-color:#000000;stop-opacity:0.50196081;"
         offset="0"
         id="stop3049-6" />
      <stop
         id="stop3051-2"
         offset="0.44999999"
         style="stop-color:#000000;stop-opacity:0;" />
      <stop
         id="stop3053-3"
         offset="0.55000001"
         style="stop-color:#ffffff;stop-opacity:0;" />
      <stop
         style="stop-color:#ffffff;stop-opacity:0.50196081;"
         offset="1"
         id="stop3055-8" />
    </linearGradient>
    <linearGradient
       gradientTransform="translate(1,-13)"
       inkscape:collect="always"
       xlink:href="#linearGradient3047-4-2"
       id="linearGradient4047-1-8"
       x1="20"
       y1="1035.3622"
       x2="35"
       y2="1035.3622"
       gradientUnits="userSpaceOnUse" />
    <linearGradient
       id="linearGradient3047-4-2">
      <stop
         style="stop-color:#000000;stop-opacity:0.50196081;"
         offset="0"
         id="stop3049-9-7" />
      <stop
         id="stop3051-8-80"
         offset="0.44999999"
         style="stop-color:#000000;stop-opacity:0;" />
      <stop
         id="stop3053-2-2"
         offset="0.55000001"
         style="stop-color:#ffffff;stop-opacity:0;" />
      <stop
         style="stop-color:#ffffff;stop-opacity:0.50196081;"
         offset="1"
         id="stop3055-4-0" />
    </linearGradient>
    <linearGradient
       gradientTransform="translate(1,-11)"
       inkscape:collect="always"
       xlink:href="#linearGradient3047-2"
       id="linearGradient4047-89"
       x1="20"
       y1="1035.3622"
       x2="35"
       y2="1035.3622"
       gradientUnits="userSpaceOnUse" />
    <linearGradient
       id="linearGradient3047-2">
      <stop
         style="stop-color:#000000;stop-opacity:0.50196081;"
         offset="0"
         id="stop3049-8" />
      <stop
         id="stop3051-20"
         offset="0.44999999"
         style="stop-color:#000000;stop-opacity:0;" />
      <stop
         id="stop3053-5"
         offset="0.55000001"
         style="stop-color:#ffffff;stop-opacity:0;" />
      <stop
         style="stop-color:#ffffff;stop-opacity:0.50196081;"
         offset="1"
         id="stop3055-5" />
    </linearGradient>
    <linearGradient
       gradientTransform="translate(-1,-4.5)"
       inkscape:collect="always"
       xlink:href="#linearGradient3047-6-7"
       id="linearGradient4047-8-1"
       x1="20"
       y1="1035.3622"
       x2="35"
       y2="1035.3622"
       gradientUnits="userSpaceOnUse" />
    <linearGradient
       id="linearGradient3047-6-7">
      <stop
         style="stop-color:#000000;stop-opacity:0.50196081;"
         offset="0"
         id="stop3049-6-4" />
      <stop
         id="stop3051-2-0"
         offset="0.44999999"
         style="stop-color:#000000;stop-opacity:0;" />
      <stop
         id="stop3053-3-9"
         offset="0.55000001"
         style="stop-color:#ffffff;stop-opacity:0;" />
      <stop
         style="stop-color:#ffffff;stop-opacity:0.50196081;"
         offset="1"
         id="stop3055-8-4" />
    </linearGradient>
    <linearGradient
       gradientTransform="translate(-1,-8)"
       inkscape:collect="always"
       xlink:href="#linearGradient3047-6-5"
       id="linearGradient4047-8-5"
       x1="20"
       y1="1035.3622"
       x2="35"
       y2="1035.3622"
       gradientUnits="userSpaceOnUse" />
    <linearGradient
       id="linearGradient3047-6-5">
      <stop
         style="stop-color:#000000;stop-opacity:0.50196081;"
         offset="0"
         id="stop3049-6-1" />
      <stop
         id="stop3051-2-7"
         offset="0.44999999"
         style="stop-color:#000000;stop-opacity:0;" />
      <stop
         id="stop3053-3-1"
         offset="0.55000001"
         style="stop-color:#ffffff;stop-opacity:0;" />
      <stop
         style="stop-color:#ffffff;stop-opacity:0.50196081;"
         offset="1"
         id="stop3055-8-1" />
    </linearGradient>
    <linearGradient
       gradientTransform="translate(-16,5.5)"
       inkscape:collect="always"
       xlink:href="#linearGradient3047-6-5-7"
       id="linearGradient4047-8-5-1"
       x1="20"
       y1="1035.3622"
       x2="35"
       y2="1035.3622"
       gradientUnits="userSpaceOnUse" />
    <linearGradient
       id="linearGradient3047-6-5-7">
      <stop
         style="stop-color:#000000;stop-opacity:0.50196081;"
         offset="0"
         id="stop3049-6-1-4" />
      <stop
         id="stop3051-2-7-0"
         offset="0.44999999"
         style="stop-color:#000000;stop-opacity:0;" />
      <stop
         id="stop3053-3-1-9"
         offset="0.55000001"
         style="stop-color:#ffffff;stop-opacity:0;" />
      <stop
         style="stop-color:#ffffff;stop-opacity:0.50196081;"
         offset="1"
         id="stop3055-8-1-4" />
    </linearGradient>
    <linearGradient
       gradientTransform="translate(-16,9)"
       inkscape:collect="always"
       xlink:href="#linearGradient3047-6-7-8"
       id="linearGradient4047-8-1-8"
       x1="20"
       y1="1035.3622"
       x2="35"
       y2="1035.3622"
       gradientUnits="userSpaceOnUse" />
    <linearGradient
       id="linearGradient3047-6-7-8">
      <stop
         style="stop-color:#000000;stop-opacity:0.50196081;"
         offset="0"
         id="stop3049-6-4-2" />
      <stop
         id="stop3051-2-0-4"
         offset="0.44999999"
         style="stop-color:#000000;stop-opacity:0;" />
      <stop
         id="stop3053-3-9-5"
         offset="0.55000001"
         style="stop-color:#ffffff;stop-opacity:0;" />
      <stop
         style="stop-color:#ffffff;stop-opacity:0.50196081;"
         offset="1"
         id="stop3055-8-4-5" />
    </linearGradient>
    <linearGradient
       gradientTransform="translate(-16,12.5)"
       inkscape:collect="always"
       xlink:href="#linearGradient3047-6-1"
       id="linearGradient4047-8-17"
       x1="20"
       y1="1035.3622"
       x2="35"
       y2="1035.3622"
       gradientUnits="userSpaceOnUse" />
    <linearGradient
       id="linearGradient3047-6-1">
      <stop
         style="stop-color:#000000;stop-opacity:0.50196081;"
         offset="0"
         id="stop3049-6-15" />
      <stop
         id="stop3051-2-2"
         offset="0.44999999"
         style="stop-color:#000000;stop-opacity:0;" />
      <stop
         id="stop3053-3-7"
         offset="0.55000001"
         style="stop-color:#ffffff;stop-opacity:0;" />
      <stop
         style="stop-color:#ffffff;stop-opacity:0.50196081;"
         offset="1"
         id="stop3055-8-6" />
    </linearGradient>
    <linearGradient
       gradientTransform="translate(-1,-11.5)"
       inkscape:collect="always"
       xlink:href="#linearGradient3047-6-5-9"
       id="linearGradient4047-8-5-8"
       x1="20"
       y1="1035.3622"
       x2="35"
       y2="1035.3622"
       gradientUnits="userSpaceOnUse" />
    <linearGradient
       id="linearGradient3047-6-5-9">
      <stop
         style="stop-color:#000000;stop-opacity:0.50196081;"
         offset="0"
         id="stop3049-6-1-2" />
      <stop
         id="stop3051-2-7-7"
         offset="0.44999999"
         style="stop-color:#000000;stop-opacity:0;" />
      <stop
         id="stop3053-3-1-95"
         offset="0.55000001"
         style="stop-color:#ffffff;stop-opacity:0;" />
      <stop
         style="stop-color:#ffffff;stop-opacity:0.50196081;"
         offset="1"
         id="stop3055-8-1-43" />
    </linearGradient>
    <linearGradient
       inkscape:collect="always"
       xlink:href="#linearGradient3931"
       id="linearGradient4060"
       x1="0"
       y1="1035.3622"
       x2="36"
       y2="1035.3622"
       gradientUnits="userSpaceOnUse" />
  </defs>
  <sodipodi:namedview
     id="base"
     pagecolor="#ffffff"
     bordercolor="#666666"
     borderopacity="1.0"
     inkscape:pageopacity="0.0"
     inkscape:pageshadow="2"
     inkscape:zoom="3.959798"
     inkscape:cx="82.501256"
     inkscape:cy="23.024277"
     inkscape:document-units="px"
     inkscape:current-layer="layer1"
     showgrid="true"
     inkscape:window-width="1680"
     inkscape:window-height="988"
     inkscape:window-x="-8"
     inkscape:window-y="-8"
     inkscape:window-maximized="1">
    <inkscape:grid
       type="xygrid"
       id="grid2985"
       empspacing="4"
       visible="true"
       enabled="true"
       snapvisiblegridlinesonly="true"
       spacingx="0.5px"
       spacingy="0.5px" />
  </sodipodi:namedview>
  <metadata
     id="metadata7">
    <rdf:RDF>
      <cc:Work
         rdf:about="">
        <dc:format>image/svg+xml</dc:format>
        <dc:type
           rdf:resource="http://purl.org/dc/dcmitype/StillImage" />
        <dc:title></dc:title>
      </cc:Work>
    </rdf:RDF>
  </metadata>
  <g
     inkscape:label="Layer 1"
     inkscape:groupmode="layer"
     id="layer1"
     transform="translate(0,-1016.3622)">
    <path
       sodipodi:type="arc"
       style="fill:#fcb030;fill-opacity:1;fill-rule:evenodd;stroke:#000000;stroke-width:1;stroke-linecap:butt;stroke-linejoin:bevel;stroke-miterlimit:4;stroke-opacity:1;stroke-dasharray:none;stroke-dashoffset:0"
       id="path3983-5"
       sodipodi:cx="25"
       sodipodi:cy="10"
       sodipodi:rx="7"
       sodipodi:ry="2"
       d="m 32,10 c 0,1.104569 -3.134007,2 -7,2 -3.865993,0 -7,-0.895431 -7,-2 0,-1.1045695 3.134007,-2 7,-2 3.865993,0 7,0.8954305 7,2 z"
       transform="translate(1.5,1024.3622)" />
    <path
       sodipodi:type="arc"
       style="fill:#fcb030;fill-opacity:1;fill-rule:evenodd;stroke:#000000;stroke-width:1;stroke-linecap:butt;stroke-linejoin:bevel;stroke-miterlimit:4;stroke-opacity:1;stroke-dasharray:none;stroke-dashoffset:0"
       id="path3983-2"
       sodipodi:cx="25"
       sodipodi:cy="10"
       sodipodi:rx="7"
       sodipodi:ry="2"
       d="m 32,10 c 0,1.104569 -3.134007,2 -7,2 -3.865993,0 -7,-0.895431 -7,-2 0,-1.1045695 3.134007,-2 7,-2 3.865993,0 7,0.8954305 7,2 z"
       transform="translate(1.5,1020.8622)" />
    <path
       id="path3983-2-4-6"
       style="fill:#fcb030;fill-opacity:1;fill-rule:evenodd;stroke:#000000;stroke-width:1;stroke-linecap:butt;stroke-linejoin:bevel;stroke-miterlimit:4;stroke-opacity:1;stroke-dashoffset:0"
       d="m 19.5,1034.3622 c 0,1.1046 3.134007,2 7,2 3.865993,0 7,-0.8954 7,-2 l 0,-3.5 c 0,1.1046 -3.134007,2 -7,2 -3.865993,0 -7,-0.8954 -7,-2 z"
       inkscape:connector-curvature="0"
       sodipodi:nodetypes="ssscscs" />
    <path
       id="path3983-2-4-5-2"
       style="fill:url(#linearGradient4047-8);fill-opacity:1;fill-rule:evenodd;stroke:#000000;stroke-width:1;stroke-linecap:butt;stroke-linejoin:bevel;stroke-miterlimit:4;stroke-opacity:1;stroke-dashoffset:0"
       d="m 19.5,1034.3622 c 0,1.1046 3.134007,2 7,2 3.865993,0 7,-0.8954 7,-2 l 0,-3.5 c 0,1.1046 -3.134007,2 -7,2 -3.865993,0 -7,-0.8954 -7,-2 z"
       inkscape:connector-curvature="0"
       sodipodi:nodetypes="ssscscs" />
    <path
       sodipodi:type="arc"
       style="fill:#fcb030;fill-opacity:1;fill-rule:evenodd;stroke:#000000;stroke-width:1;stroke-linecap:butt;stroke-linejoin:bevel;stroke-miterlimit:4;stroke-opacity:1;stroke-dasharray:none;stroke-dashoffset:0"
       id="path3983-5-8"
       sodipodi:cx="25"
       sodipodi:cy="10"
       sodipodi:rx="7"
       sodipodi:ry="2"
       d="m 32,10 c 0,1.104569 -3.134007,2 -7,2 -3.865993,0 -7,-0.895431 -7,-2 0,-1.1045695 3.134007,-2 7,-2 3.865993,0 7,0.8954305 7,2 z"
       transform="translate(1.5,1020.8622)" />
    <path
       sodipodi:type="arc"
       style="fill:#fcb030;fill-opacity:1;fill-rule:evenodd;stroke:#000000;stroke-width:1;stroke-linecap:butt;stroke-linejoin:bevel;stroke-miterlimit:4;stroke-opacity:1;stroke-dasharray:none;stroke-dashoffset:0"
       id="path3983-2-8"
       sodipodi:cx="25"
       sodipodi:cy="10"
       sodipodi:rx="7"
       sodipodi:ry="2"
       d="m 32,10 c 0,1.104569 -3.134007,2 -7,2 -3.865993,0 -7,-0.895431 -7,-2 0,-1.1045695 3.134007,-2 7,-2 3.865993,0 7,0.8954305 7,2 z"
       transform="translate(1.5,1017.3622)" />
    <path
       id="path3983-2-4-6-2"
       style="fill:#fcb030;fill-opacity:1;fill-rule:evenodd;stroke:#000000;stroke-width:1;stroke-linecap:butt;stroke-linejoin:bevel;stroke-miterlimit:4;stroke-opacity:1;stroke-dashoffset:0"
       d="m 19.5,1030.8622 c 0,1.1046 3.134007,2 7,2 3.865993,0 7,-0.8954 7,-2 l 0,-3.5 c 0,1.1046 -3.134007,2 -7,2 -3.865993,0 -7,-0.8954 -7,-2 z"
       inkscape:connector-curvature="0"
       sodipodi:nodetypes="ssscscs" />
    <path
       id="path3983-2-4-5-2-4"
       style="fill:url(#linearGradient4047-8-1);fill-opacity:1;fill-rule:evenodd;stroke:#000000;stroke-width:1;stroke-linecap:butt;stroke-linejoin:bevel;stroke-miterlimit:4;stroke-opacity:1;stroke-dashoffset:0"
       d="m 19.5,1030.8622 c 0,1.1046 3.134007,2 7,2 3.865993,0 7,-0.8954 7,-2 l 0,-3.5 c 0,1.1046 -3.134007,2 -7,2 -3.865993,0 -7,-0.8954 -7,-2 z"
       inkscape:connector-curvature="0"
       sodipodi:nodetypes="ssscscs" />
    <path
       sodipodi:type="arc"
       style="fill:#fcb030;fill-opacity:1;fill-rule:evenodd;stroke:#000000;stroke-width:1;stroke-linecap:butt;stroke-linejoin:bevel;stroke-miterlimit:4;stroke-opacity:1;stroke-dasharray:none;stroke-dashoffset:0"
       id="path3983-5-5"
       sodipodi:cx="25"
       sodipodi:cy="10"
       sodipodi:rx="7"
       sodipodi:ry="2"
       d="m 32,10 c 0,1.104569 -3.134007,2 -7,2 -3.865993,0 -7,-0.895431 -7,-2 0,-1.1045695 3.134007,-2 7,-2 3.865993,0 7,0.8954305 7,2 z"
       transform="translate(1.5,1017.3622)" />
    <path
       sodipodi:type="arc"
       style="fill:#fcb030;fill-opacity:1;fill-rule:evenodd;stroke:#000000;stroke-width:1;stroke-linecap:butt;stroke-linejoin:bevel;stroke-miterlimit:4;stroke-opacity:1;stroke-dasharray:none;stroke-dashoffset:0"
       id="path3983-2-2"
       sodipodi:cx="25"
       sodipodi:cy="10"
       sodipodi:rx="7"
       sodipodi:ry="2"
       d="m 32,10 c 0,1.104569 -3.134007,2 -7,2 -3.865993,0 -7,-0.895431 -7,-2 0,-1.1045695 3.134007,-2 7,-2 3.865993,0 7,0.8954305 7,2 z"
       transform="translate(1.5,1013.8622)" />
    <path
       id="path3983-2-4-6-7"
       style="fill:#fcb030;fill-opacity:1;fill-rule:evenodd;stroke:#000000;stroke-width:1;stroke-linecap:butt;stroke-linejoin:bevel;stroke-miterlimit:4;stroke-opacity:1;stroke-dashoffset:0"
       d="m 19.5,1027.3622 c 0,1.1046 3.134007,2 7,2 3.865993,0 7,-0.8954 7,-2 l 0,-3.5 c 0,1.1046 -3.134007,2 -7,2 -3.865993,0 -7,-0.8954 -7,-2 z"
       inkscape:connector-curvature="0"
       sodipodi:nodetypes="ssscscs" />
    <path
       id="path3983-2-4-5-2-6"
       style="fill:url(#linearGradient4047-8-5);fill-opacity:1;fill-rule:evenodd;stroke:#000000;stroke-width:1;stroke-linecap:butt;stroke-linejoin:bevel;stroke-miterlimit:4;stroke-opacity:1;stroke-dashoffset:0"
       d="m 19.5,1027.3622 c 0,1.1046 3.134007,2 7,2 3.865993,0 7,-0.8954 7,-2 l 0,-3.5 c 0,1.1046 -3.134007,2 -7,2 -3.865993,0 -7,-0.8954 -7,-2 z"
       inkscape:connector-curvature="0"
       sodipodi:nodetypes="ssscscs" />
    <path
       sodipodi:type="arc"
       style="fill:#fcb030;fill-opacity:1;fill-rule:evenodd;stroke:#000000;stroke-width:1;stroke-linecap:butt;stroke-linejoin:bevel;stroke-miterlimit:4;stroke-opacity:1;stroke-dasharray:none;stroke-dashoffset:0"
       id="path3983-5-1"
       sodipodi:cx="25"
       sodipodi:cy="10"
       sodipodi:rx="7"
       sodipodi:ry="2"
       d="m 32,10 c 0,1.104569 -3.134007,2 -7,2 -3.865993,0 -7,-0.895431 -7,-2 0,-1.1045695 3.134007,-2 7,-2 3.865993,0 7,0.8954305 7,2 z"
       transform="translate(-13.5,1037.8622)" />
    <path
       sodipodi:type="arc"
       style="fill:#fcb030;fill-opacity:1;fill-rule:evenodd;stroke:#000000;stroke-width:1;stroke-linecap:butt;stroke-linejoin:bevel;stroke-miterlimit:4;stroke-opacity:1;stroke-dasharray:none;stroke-dashoffset:0"
       id="path3983-2-4"
       sodipodi:cx="25"
       sodipodi:cy="10"
       sodipodi:rx="7"
       sodipodi:ry="2"
       d="m 32,10 c 0,1.104569 -3.134007,2 -7,2 -3.865993,0 -7,-0.895431 -7,-2 0,-1.1045695 3.134007,-2 7,-2 3.865993,0 7,0.8954305 7,2 z"
       transform="translate(-13.5,1034.3622)" />
    <path
       id="path3983-2-4-6-23"
       style="fill:#fcb030;fill-opacity:1;fill-rule:evenodd;stroke:#000000;stroke-width:1;stroke-linecap:butt;stroke-linejoin:bevel;stroke-miterlimit:4;stroke-opacity:1;stroke-dashoffset:0"
       d="m 4.5,1047.8622 c 0,1.1046 3.134007,2 7,2 3.865993,0 7,-0.8954 7,-2 l 0,-3.5 c 0,1.1046 -3.134007,2 -7,2 -3.865993,0 -7,-0.8954 -7,-2 z"
       inkscape:connector-curvature="0"
       sodipodi:nodetypes="ssscscs" />
    <path
       id="path3983-2-4-5-2-2"
       style="fill:url(#linearGradient4047-8-17);fill-opacity:1;fill-rule:evenodd;stroke:#000000;stroke-width:1;stroke-linecap:butt;stroke-linejoin:bevel;stroke-miterlimit:4;stroke-opacity:1;stroke-dashoffset:0"
       d="m 4.5,1047.8622 c 0,1.1046 3.134007,2 7,2 3.865993,0 7,-0.8954 7,-2 l 0,-3.5 c 0,1.1046 -3.134007,2 -7,2 -3.865993,0 -7,-0.8954 -7,-2 z"
       inkscape:connector-curvature="0"
       sodipodi:nodetypes="ssscscs" />
    <path
       sodipodi:type="arc"
       style="fill:#fcb030;fill-opacity:1;fill-rule:evenodd;stroke:#000000;stroke-width:1;stroke-linecap:butt;stroke-linejoin:bevel;stroke-miterlimit:4;stroke-opacity:1;stroke-dasharray:none;stroke-dashoffset:0"
       id="path3983-5-8-2"
       sodipodi:cx="25"
       sodipodi:cy="10"
       sodipodi:rx="7"
       sodipodi:ry="2"
       d="m 32,10 c 0,1.104569 -3.134007,2 -7,2 -3.865993,0 -7,-0.895431 -7,-2 0,-1.1045695 3.134007,-2 7,-2 3.865993,0 7,0.8954305 7,2 z"
       transform="translate(-13.5,1034.3622)" />
    <path
       style="fill:#9cd487;stroke:#000000;stroke-width:1px;stroke-linecap:butt;stroke-linejoin:bevel;stroke-opacity:1;fill-opacity:1"
       d="m 0.5,27.5 0,-13 c 0,0 5.5,-4 11.5,-4 6,0 5.5,4 10.5,4 5,0 13,-4 13,-4 l 0,13 c 0,0 -8,4 -12,4 -4,0 -3.5,-3 -9.5,-3 -6,0 -13.5,3 -13.5,3 z"
       id="path4026"
       inkscape:connector-curvature="0"
       transform="translate(0,1016.3622)"
       sodipodi:nodetypes="ccssccssc" />
    <path
       style="fill:url(#linearGradient4060);fill-opacity:1.0;stroke:#000000;stroke-width:1px;stroke-linecap:butt;stroke-linejoin:bevel;stroke-opacity:1"
       d="m 0.5,1043.8622 0,-13 c 0,0 5.5,-4 11.5,-4 6,0 5.5,4 10.5,4 5,0 13,-4 13,-4 l 0,13 c 0,0 -8,4 -12,4 -4,0 -3.5,-3 -9.5,-3 -6,0 -13.5,3 -13.5,3 z"
       id="path4026-3"
       inkscape:connector-curvature="0"
       sodipodi:nodetypes="ccssccssc" />
    <path
       sodipodi:type="arc"
       style="fill:#fcb030;fill-opacity:1;fill-rule:evenodd;stroke:#000000;stroke-width:1;stroke-linecap:butt;stroke-linejoin:bevel;stroke-miterlimit:4;stroke-opacity:1;stroke-dasharray:none;stroke-dashoffset:0"
       id="path3983-2-8-1"
       sodipodi:cx="25"
       sodipodi:cy="10"
       sodipodi:rx="7"
       sodipodi:ry="2"
       d="m 32,10 c 0,1.104569 -3.134007,2 -7,2 -3.865993,0 -7,-0.895431 -7,-2 0,-1.1045695 3.134007,-2 7,-2 3.865993,0 7,0.8954305 7,2 z"
       transform="translate(-13.5,1030.8622)" />
    <path
       id="path3983-2-4-6-2-6"
       style="fill:#fcb030;fill-opacity:1;fill-rule:evenodd;stroke:#000000;stroke-width:1;stroke-linecap:butt;stroke-linejoin:bevel;stroke-miterlimit:4;stroke-opacity:1;stroke-dashoffset:0"
       d="m 4.5,1044.3622 c 0,1.1046 3.134007,2 7,2 3.865993,0 7,-0.8954 7,-2 l 0,-3.5 c 0,1.1046 -3.134007,2 -7,2 -3.865993,0 -7,-0.8954 -7,-2 z"
       inkscape:connector-curvature="0"
       sodipodi:nodetypes="ssscscs" />
    <path
       id="path3983-2-4-5-2-4-8"
       style="fill:url(#linearGradient4047-8-1-8);fill-opacity:1;fill-rule:evenodd;stroke:#000000;stroke-width:1;stroke-linecap:butt;stroke-linejoin:bevel;stroke-miterlimit:4;stroke-opacity:1;stroke-dashoffset:0"
       d="m 4.5,1044.3622 c 0,1.1046 3.134007,2 7,2 3.865993,0 7,-0.8954 7,-2 l 0,-3.5 c 0,1.1046 -3.134007,2 -7,2 -3.865993,0 -7,-0.8954 -7,-2 z"
       inkscape:connector-curvature="0"
       sodipodi:nodetypes="ssscscs" />
    <path
       sodipodi:type="arc"
       style="fill:#fcb030;fill-opacity:1;fill-rule:evenodd;stroke:#000000;stroke-width:1;stroke-linecap:butt;stroke-linejoin:bevel;stroke-miterlimit:4;stroke-opacity:1;stroke-dasharray:none;stroke-dashoffset:0"
       id="path3983-5-5-5"
       sodipodi:cx="25"
       sodipodi:cy="10"
       sodipodi:rx="7"
       sodipodi:ry="2"
       d="m 32,10 c 0,1.104569 -3.134007,2 -7,2 -3.865993,0 -7,-0.895431 -7,-2 0,-1.1045695 3.134007,-2 7,-2 3.865993,0 7,0.8954305 7,2 z"
       transform="translate(-13.5,1030.8622)" />
    <path
       sodipodi:type="arc"
       style="fill:#fcb030;fill-opacity:1;fill-rule:evenodd;stroke:#000000;stroke-width:1;stroke-linecap:butt;stroke-linejoin:bevel;stroke-miterlimit:4;stroke-opacity:1;stroke-dasharray:none;stroke-dashoffset:0"
       id="path3983-2-2-7"
       sodipodi:cx="25"
       sodipodi:cy="10"
       sodipodi:rx="7"
       sodipodi:ry="2"
       d="m 32,10 c 0,1.104569 -3.134007,2 -7,2 -3.865993,0 -7,-0.895431 -7,-2 0,-1.1045695 3.134007,-2 7,-2 3.865993,0 7,0.8954305 7,2 z"
       transform="translate(-13.5,1027.3622)" />
    <path
       id="path3983-2-4-6-7-6"
       style="fill:#fcb030;fill-opacity:1;fill-rule:evenodd;stroke:#000000;stroke-width:1;stroke-linecap:butt;stroke-linejoin:bevel;stroke-miterlimit:4;stroke-opacity:1;stroke-dashoffset:0"
       d="m 4.5,1040.8622 c 0,1.1046 3.134007,2 7,2 3.865993,0 7,-0.8954 7,-2 l 0,-3.5 c 0,1.1046 -3.134007,2 -7,2 -3.865993,0 -7,-0.8954 -7,-2 z"
       inkscape:connector-curvature="0"
       sodipodi:nodetypes="ssscscs" />
    <path
       id="path3983-2-4-5-2-6-1"
       style="fill:url(#linearGradient4047-8-5-1);fill-opacity:1;fill-rule:evenodd;stroke:#000000;stroke-width:1;stroke-linecap:butt;stroke-linejoin:bevel;stroke-miterlimit:4;stroke-opacity:1;stroke-dashoffset:0"
       d="m 4.5,1040.8622 c 0,1.1046 3.134007,2 7,2 3.865993,0 7,-0.8954 7,-2 l 0,-3.5 c 0,1.1046 -3.134007,2 -7,2 -3.865993,0 -7,-0.8954 -7,-2 z"
       inkscape:connector-curvature="0"
       sodipodi:nodetypes="ssscscs" />
    <path
       sodipodi:type="arc"
       style="fill:#fcb030;fill-opacity:1;fill-rule:evenodd;stroke:#000000;stroke-width:1;stroke-linecap:butt;stroke-linejoin:bevel;stroke-miterlimit:4;stroke-opacity:1;stroke-dasharray:none;stroke-dashoffset:0"
       id="path3983-2-8-12"
       sodipodi:cx="25"
       sodipodi:cy="10"
       sodipodi:rx="7"
       sodipodi:ry="2"
       d="m 32,10 c 0,1.104569 -3.134007,2 -7,2 -3.865993,0 -7,-0.895431 -7,-2 0,-1.1045695 3.134007,-2 7,-2 3.865993,0 7,0.8954305 7,2 z"
       transform="translate(1.5,1013.8622)" />
    <path
       sodipodi:type="arc"
       style="fill:#fcb030;fill-opacity:1;fill-rule:evenodd;stroke:#000000;stroke-width:1;stroke-linecap:butt;stroke-linejoin:bevel;stroke-miterlimit:4;stroke-opacity:1;stroke-dasharray:none;stroke-dashoffset:0"
       id="path3983-2-2-3"
       sodipodi:cx="25"
       sodipodi:cy="10"
       sodipodi:rx="7"
       sodipodi:ry="2"
       d="m 32,10 c 0,1.104569 -3.134007,2 -7,2 -3.865993,0 -7,-0.895431 -7,-2 0,-1.1045695 3.134007,-2 7,-2 3.865993,0 7,0.8954305 7,2 z"
       transform="translate(1.5,1010.3622)" />
    <path
       id="path3983-2-4-6-7-4"
       style="fill:#fcb030;fill-opacity:1;fill-rule:evenodd;stroke:#000000;stroke-width:1;stroke-linecap:butt;stroke-linejoin:bevel;stroke-miterlimit:4;stroke-opacity:1;stroke-dashoffset:0"
       d="m 19.5,1023.8622 c 0,1.1046 3.134007,2 7,2 3.865993,0 7,-0.8954 7,-2 l 0,-3.5 c 0,1.1046 -3.134007,2 -7,2 -3.865993,0 -7,-0.8954 -7,-2 z"
       inkscape:connector-curvature="0"
       sodipodi:nodetypes="ssscscs" />
    <path
       id="path3983-2-4-5-2-6-11"
       style="fill:url(#linearGradient4047-8-5-8);fill-opacity:1;fill-rule:evenodd;stroke:#000000;stroke-width:1;stroke-linecap:butt;stroke-linejoin:bevel;stroke-miterlimit:4;stroke-opacity:1;stroke-dashoffset:0"
       d="m 19.5,1023.8622 c 0,1.1046 3.134007,2 7,2 3.865993,0 7,-0.8954 7,-2 l 0,-3.5 c 0,1.1046 -3.134007,2 -7,2 -3.865993,0 -7,-0.8954 -7,-2 z"
       inkscape:connector-curvature="0"
       sodipodi:nodetypes="ssscscs" />
  </g>
</svg>
