<?xml version="1.0" encoding="UTF-8" standalone="no"?>
<!-- Created with Inkscape (http://www.inkscape.org/) -->

<svg
   xmlns:dc="http://purl.org/dc/elements/1.1/"
   xmlns:cc="http://creativecommons.org/ns#"
   xmlns:rdf="http://www.w3.org/1999/02/22-rdf-syntax-ns#"
   xmlns:svg="http://www.w3.org/2000/svg"
   xmlns="http://www.w3.org/2000/svg"
   xmlns:xlink="http://www.w3.org/1999/xlink"
   xmlns:sodipodi="http://sodipodi.sourceforge.net/DTD/sodipodi-0.dtd"
   xmlns:inkscape="http://www.inkscape.org/namespaces/inkscape"
   width="36"
   height="36"
   id="svg2"
   version="1.1"
   inkscape:version="0.48.2 r9819"
   sodipodi:docname="settings.svg"
   inkscape:export-filename="M:\zbase\zbase\gui\toolbar\settings.png"
   inkscape:export-xdpi="90"
   inkscape:export-ydpi="90">
  <defs
     id="defs4">
    <linearGradient
       inkscape:collect="always"
       id="linearGradient3782">
      <stop
         style="stop-color:#000000;stop-opacity:1;"
         offset="0"
         id="stop3784" />
      <stop
         style="stop-color:#000000;stop-opacity:0;"
         offset="1"
         id="stop3786" />
    </linearGradient>
    <linearGradient
       id="linearGradient3757">
      <stop
         style="stop-color:#000000;stop-opacity:1;"
         offset="0"
         id="stop3759" />
      <stop
         style="stop-color:#000000;stop-opacity:0;"
         offset="1"
         id="stop3761" />
    </linearGradient>
    <linearGradient
       inkscape:collect="always"
       xlink:href="#linearGradient3757"
       id="linearGradient3763"
       x1="6"
       y1="36"
       x2="6"
       y2="0"
       gradientUnits="userSpaceOnUse"
       gradientTransform="translate(0.00235075,1016.3622)" />
    <linearGradient
       inkscape:collect="always"
       xlink:href="#linearGradient3757-7"
       id="linearGradient3763-1"
       x1="6"
       y1="36"
       x2="6"
       y2="0"
       gradientUnits="userSpaceOnUse" />
    <linearGradient
       id="linearGradient3757-7">
      <stop
         style="stop-color:#000000;stop-opacity:1;"
         offset="0"
         id="stop3759-4" />
      <stop
         style="stop-color:#000000;stop-opacity:0.75"
         offset="1"
         id="stop3761-0" />
    </linearGradient>
    <linearGradient
       gradientTransform="translate(24,1016.3622)"
       inkscape:collect="always"
       xlink:href="#linearGradient3757-8"
       id="linearGradient3763-4"
       x1="6"
       y1="36"
       x2="6"
       y2="0"
       gradientUnits="userSpaceOnUse" />
    <linearGradient
       id="linearGradient3757-8">
      <stop
         style="stop-color:#000000;stop-opacity:1;"
         offset="0"
         id="stop3759-8" />
      <stop
         style="stop-color:#000000;stop-opacity:0;"
         offset="1"
         id="stop3761-2" />
    </linearGradient>
    <linearGradient
       inkscape:collect="always"
       xlink:href="#linearGradient3782"
       id="linearGradient3788"
       x1="290.35956"
       y1="325.79031"
       x2="290.35956"
       y2="287.21933"
       gradientUnits="userSpaceOnUse" />
    <linearGradient
       inkscape:collect="always"
       xlink:href="#linearGradient3782-8"
       id="linearGradient3788-4"
       x1="290.35956"
       y1="325.79031"
       x2="290.35956"
       y2="287.21933"
       gradientUnits="userSpaceOnUse" />
    <linearGradient
       inkscape:collect="always"
       id="linearGradient3782-8">
      <stop
         style="stop-color:#000000;stop-opacity:1;"
         offset="0"
         id="stop3784-8" />
      <stop
         style="stop-color:#000000;stop-opacity:0;"
         offset="1"
         id="stop3786-2" />
    </linearGradient>
    <linearGradient
       inkscape:collect="always"
       xlink:href="#linearGradient3782-8"
       id="linearGradient3804"
       x1="290.35956"
       y1="325.79031"
       x2="290.35956"
       y2="287.21933"
       gradientUnits="userSpaceOnUse" />
  </defs>
  <sodipodi:namedview
     id="base"
     pagecolor="#ffffff"
     bordercolor="#666666"
     borderopacity="1.0"
     inkscape:pageopacity="0.0"
     inkscape:pageshadow="2"
     inkscape:zoom="11.2"
     inkscape:cx="2.1180439"
     inkscape:cy="23.545977"
     inkscape:document-units="px"
     inkscape:current-layer="layer1"
     showgrid="true"
     inkscape:window-width="1680"
     inkscape:window-height="988"
     inkscape:window-x="-8"
     inkscape:window-y="-8"
     inkscape:window-maximized="1">
    <inkscape:grid
       type="xygrid"
       id="grid2985"
       empspacing="4"
       visible="true"
       enabled="true"
       snapvisiblegridlinesonly="true"
       spacingx="0.5px"
       spacingy="0.5px" />
  </sodipodi:namedview>
  <metadata
     id="metadata7">
    <rdf:RDF>
      <cc:Work
         rdf:about="">
        <dc:format>image/svg+xml</dc:format>
        <dc:type
           rdf:resource="http://purl.org/dc/dcmitype/StillImage" />
        <dc:title></dc:title>
      </cc:Work>
    </rdf:RDF>
  </metadata>
  <g
     inkscape:label="Layer 1"
     inkscape:groupmode="layer"
     id="layer1"
     transform="translate(0,-1016.3622)">
    <g
       transform="matrix(0.93332889,0,0,0.9333436,-253.00097,748.28789)"
       id="layer1-9-4"
       inkscape:label="Layer 1"
       style="fill:#808080;fill-opacity:1;stroke:#000000;stroke-width:1.07142520000000000;stroke-miterlimit:4;stroke-opacity:1;stroke-dasharray:none">
      <path
         inkscape:connector-curvature="0"
         style="fill:#808080;fill-opacity:1;stroke:#000000;stroke-width:1.07142520000000000;stroke-miterlimit:4;stroke-opacity:1;stroke-dasharray:none"
         d="m 289.07922,325.23511 c -0.0346,-0.0143 -0.0814,-0.076 -0.11158,-0.14699 -0.0286,-0.0673 -0.0748,-0.1518 -0.1028,-0.18771 -0.028,-0.0359 -0.07,-0.13193 -0.0935,-0.21337 -0.0234,-0.0815 -0.0714,-0.18614 -0.10648,-0.23265 -0.0351,-0.0465 -0.0833,-0.14276 -0.10717,-0.21389 -0.0238,-0.0711 -0.0716,-0.17283 -0.10624,-0.226 -0.0346,-0.0532 -0.0801,-0.15421 -0.10103,-0.22455 -0.021,-0.0703 -0.0663,-0.17098 -0.10086,-0.22365 -0.0345,-0.0527 -0.0808,-0.15728 -0.10293,-0.23244 -0.0221,-0.0752 -0.0753,-0.18704 -0.11831,-0.24862 -0.043,-0.0616 -0.0905,-0.15988 -0.1055,-0.21849 -0.0151,-0.0586 -0.0568,-0.14686 -0.0928,-0.19613 -0.036,-0.0493 -0.0841,-0.15451 -0.10697,-0.23385 -0.0228,-0.0793 -0.0711,-0.18939 -0.10723,-0.24454 -0.0361,-0.0551 -0.0828,-0.15769 -0.10372,-0.22787 -0.0209,-0.0702 -0.0665,-0.16958 -0.1014,-0.22088 -0.0349,-0.0513 -0.0878,-0.15979 -0.11765,-0.24108 -0.062,-0.16881 -0.12811,-0.24133 -0.27679,-0.30354 -0.0574,-0.024 -0.15437,-0.0665 -0.2154,-0.0944 -0.061,-0.0279 -0.20471,-0.0686 -0.31931,-0.0906 -0.1146,-0.022 -0.27099,-0.0686 -0.34755,-0.10365 -0.0765,-0.035 -0.23941,-0.0827 -0.36189,-0.10583 -0.12249,-0.0232 -0.279,-0.0718 -0.3478,-0.10817 -0.0688,-0.0363 -0.17545,-0.073 -0.23698,-0.0815 -0.0952,-0.0132 -0.12406,-0.005 -0.19364,0.054 -0.045,0.0382 -0.14464,0.0977 -0.22152,0.13208 -0.0769,0.0344 -0.16311,0.0888 -0.19164,0.1208 -0.0285,0.032 -0.0915,0.0749 -0.13989,0.0953 -0.0484,0.0204 -0.12377,0.0675 -0.16745,0.10464 -0.0437,0.0371 -0.12221,0.0856 -0.17451,0.10762 -0.0523,0.0221 -0.12456,0.0679 -0.16058,0.10196 -0.036,0.034 -0.11404,0.0864 -0.17336,0.11641 -0.0593,0.03 -0.14185,0.0833 -0.1834,0.11837 -0.0416,0.0351 -0.10285,0.0724 -0.13622,0.083 -0.0334,0.0106 -0.0998,0.0539 -0.14766,0.0963 -0.0478,0.0424 -0.13254,0.0961 -0.18823,0.11928 -0.0557,0.0232 -0.12819,0.0673 -0.16113,0.098 -0.0574,0.0536 -0.12255,0.0949 -0.42543,0.26981 -0.0756,0.0437 -0.17579,0.11218 -0.22263,0.15225 -0.0469,0.0401 -0.13073,0.0918 -0.18641,0.11492 -0.0557,0.0231 -0.13072,0.0701 -0.16675,0.10436 -0.036,0.0343 -0.10689,0.0798 -0.15747,0.10109 -0.0506,0.0213 -0.12442,0.0692 -0.16407,0.10629 -0.086,0.0805 -0.25147,0.13557 -0.33984,0.11317 -0.0349,-0.009 -0.1097,-0.0532 -0.16613,-0.0985 -0.0564,-0.0453 -0.14386,-0.0998 -0.19429,-0.12108 -0.0504,-0.0213 -0.12118,-0.0665 -0.15721,-0.10043 -0.036,-0.034 -0.10473,-0.0817 -0.15268,-0.10619 -0.048,-0.0245 -0.14022,-0.0853 -0.20505,-0.13533 -0.0648,-0.05 -0.13284,-0.0909 -0.15111,-0.0909 -0.0183,0 -0.0557,-0.0251 -0.0831,-0.0558 -0.0275,-0.0307 -0.11475,-0.0889 -0.19401,-0.12942 -0.0793,-0.0405 -0.16559,-0.0976 -0.19185,-0.127 -0.0263,-0.0294 -0.0852,-0.0686 -0.131,-0.0871 -0.0458,-0.0186 -0.11736,-0.062 -0.15904,-0.0965 -0.0417,-0.0345 -0.13259,-0.0919 -0.20202,-0.1274 -0.1706,-0.0873 -0.1945,-0.17508 -0.15536,-0.57051 0.0284,-0.28677 0.0412,-0.36668 0.11653,-0.72474 0.0214,-0.10188 0.0573,-0.39958 0.0798,-0.66155 0.0225,-0.26197 0.0701,-0.61984 0.10576,-0.79527 0.0357,-0.17542 0.0823,-0.5267 0.10365,-0.78063 0.0213,-0.25392 0.0616,-0.5738 0.0895,-0.71085 0.0279,-0.13705 0.0436,-0.26804 0.0349,-0.29109 -0.0189,-0.0498 -0.16809,-0.25015 -0.25702,-0.34502 -0.1945,-0.20748 -0.81067,-0.92486 -0.95081,-1.10698 -0.048,-0.0624 -0.13265,-0.13683 -0.18807,-0.16539 -0.0976,-0.0503 -0.16598,-0.0519 -2.20158,-0.0519 l -2.1008,0 -0.12383,-0.1257 c -0.094,-0.0954 -0.1346,-0.1634 -0.16854,-0.2822 -0.0246,-0.0861 -0.0737,-0.19921 -0.10904,-0.25139 -0.0354,-0.0522 -0.0819,-0.15547 -0.10344,-0.22952 -0.0215,-0.074 -0.068,-0.17422 -0.10336,-0.2226 -0.0353,-0.0484 -0.0829,-0.15287 -0.10578,-0.23221 -0.0228,-0.0793 -0.0711,-0.18939 -0.10722,-0.24454 -0.0361,-0.0551 -0.0829,-0.15782 -0.10381,-0.22816 -0.021,-0.0703 -0.068,-0.17344 -0.10444,-0.22912 -0.0804,-0.12273 -0.15518,-0.41205 -0.13131,-0.50812 0.01,-0.0384 0.0553,-0.10967 0.10156,-0.1583 0.0463,-0.0486 0.14314,-0.16219 0.21519,-0.25236 0.14928,-0.18682 0.34154,-0.41771 0.46557,-0.5591 0.0465,-0.0531 0.1318,-0.15129 0.18944,-0.21828 0.0576,-0.067 0.14606,-0.16768 0.1965,-0.22377 0.0504,-0.0561 0.15065,-0.1771 0.2227,-0.26892 0.14255,-0.18167 0.47799,-0.58499 0.62694,-0.7538 0.0951,-0.1078 0.13843,-0.15784 0.50933,-0.58848 0.13769,-0.15987 0.21617,-0.27469 0.22677,-0.33178 0.0224,-0.12073 -0.0335,-0.70237 -0.0921,-0.95854 -0.0513,-0.22424 -0.0899,-0.48511 -0.1285,-0.86995 -0.027,-0.26917 -0.0639,-0.33643 -0.24291,-0.44264 -0.0644,-0.0382 -0.14818,-0.10087 -0.18616,-0.13923 -0.038,-0.0384 -0.0864,-0.0697 -0.10754,-0.0697 -0.0212,0 -0.0918,-0.0411 -0.15697,-0.0913 -0.0652,-0.0502 -0.16413,-0.11487 -0.21991,-0.14361 -0.0558,-0.0287 -0.11753,-0.0719 -0.13722,-0.0958 -0.0197,-0.024 -0.0814,-0.0671 -0.13722,-0.0958 -0.0558,-0.0287 -0.15474,-0.0934 -0.21991,-0.14361 -0.0652,-0.0502 -0.13321,-0.0913 -0.15121,-0.0913 -0.018,0 -0.0613,-0.0314 -0.0962,-0.0697 -0.0349,-0.0384 -0.1131,-0.0923 -0.1737,-0.11979 -0.0606,-0.0275 -0.14313,-0.0779 -0.1834,-0.11187 -0.0403,-0.034 -0.12116,-0.0864 -0.17977,-0.11643 -0.0586,-0.03 -0.12266,-0.0742 -0.14235,-0.0982 -0.0197,-0.024 -0.0837,-0.0678 -0.14235,-0.0975 -0.0586,-0.0296 -0.13602,-0.0817 -0.17205,-0.11574 -0.036,-0.034 -0.107,-0.0793 -0.15773,-0.10075 -0.0507,-0.0214 -0.11558,-0.0651 -0.1441,-0.0971 -0.0285,-0.032 -0.11082,-0.0847 -0.18287,-0.11699 -0.0721,-0.0323 -0.14795,-0.0795 -0.16866,-0.10482 -0.0207,-0.0253 -0.0924,-0.074 -0.15923,-0.10826 -0.12186,-0.0624 -0.23873,-0.18893 -0.27167,-0.29419 -0.01,-0.0312 0.0182,-0.22578 0.0627,-0.43662 0.0442,-0.20922 0.098,-0.57688 0.11956,-0.81702 0.0216,-0.24014 0.0572,-0.50807 0.0792,-0.59539 0.022,-0.0873 0.0624,-0.28381 0.0898,-0.43663 0.0591,-0.32949 0.0762,-0.34931 0.33909,-0.39315 0.10291,-0.0172 0.24248,-0.0605 0.31016,-0.0962 0.0677,-0.0357 0.22238,-0.084 0.34378,-0.10726 0.1214,-0.0233 0.27467,-0.0699 0.3406,-0.10354 0.0659,-0.0337 0.22009,-0.0815 0.34258,-0.10618 0.12248,-0.0247 0.28539,-0.0744 0.36201,-0.11047 0.0766,-0.036 0.22786,-0.0827 0.33609,-0.10357 0.10824,-0.0209 0.27546,-0.0724 0.3716,-0.11449 0.0961,-0.0421 0.25602,-0.0903 0.35529,-0.10731 0.0993,-0.017 0.2378,-0.0602 0.30785,-0.096 0.07,-0.0358 0.21829,-0.0828 0.32942,-0.10423 0.31192,-0.0603 0.36132,-0.0843 0.51275,-0.24951 0.10863,-0.1185 0.15112,-0.18999 0.18464,-0.31064 0.0239,-0.0862 0.0728,-0.19675 0.10852,-0.24568 0.0358,-0.0489 0.0837,-0.15389 0.10652,-0.23323 0.0228,-0.0793 0.07,-0.18774 0.10482,-0.24087 0.0348,-0.0531 0.0802,-0.15322 0.10079,-0.22242 0.0206,-0.0692 0.0769,-0.18781 0.12505,-0.2636 0.082,-0.12894 0.0876,-0.15242 0.0876,-0.36558 0,-0.21042 -0.006,-0.23823 -0.0842,-0.3647 -0.0463,-0.0753 -0.1024,-0.19883 -0.12465,-0.2745 -0.0222,-0.0757 -0.0706,-0.18149 -0.10739,-0.23514 -0.0368,-0.0537 -0.0832,-0.15963 -0.10297,-0.23549 -0.0198,-0.0759 -0.0646,-0.18157 -0.0996,-0.23489 -0.0349,-0.0533 -0.0836,-0.16654 -0.10803,-0.25158 -0.0245,-0.085 -0.0741,-0.19974 -0.11021,-0.25489 -0.0361,-0.0552 -0.0829,-0.15783 -0.10381,-0.22816 -0.021,-0.0703 -0.0666,-0.17136 -0.10141,-0.2245 -0.0348,-0.0531 -0.082,-0.16152 -0.10482,-0.24086 -0.0228,-0.0793 -0.0704,-0.18384 -0.10577,-0.23222 -0.0353,-0.0484 -0.0829,-0.15287 -0.10577,-0.23221 -0.0228,-0.0793 -0.0711,-0.18939 -0.10722,-0.24454 -0.0361,-0.0552 -0.0829,-0.15782 -0.10381,-0.22816 -0.021,-0.0703 -0.0677,-0.173 -0.10381,-0.22815 -0.0709,-0.10827 -0.12528,-0.33429 -0.0985,-0.40963 0.009,-0.0256 0.053,-0.0837 0.0975,-0.12901 0.0445,-0.0453 0.1245,-0.13466 0.1777,-0.19847 0.0532,-0.0638 0.15933,-0.19122 0.23581,-0.28314 0.4621,-0.55541 0.83507,-0.98309 1.07152,-1.22874 0.17384,-0.18061 0.22274,-0.18853 0.46104,-0.0747 0.0891,0.0426 0.266,0.0969 0.393,0.12069 0.127,0.0238 0.2937,0.072 0.37045,0.10722 0.0768,0.0352 0.23983,0.0817 0.3624,0.10327 0.12257,0.0216 0.28717,0.069 0.36578,0.10538 0.0786,0.0363 0.1867,0.0732 0.2402,0.0819 0.21529,0.0351 0.36677,0.0755 0.51392,0.13714 0.0851,0.0356 0.25485,0.0825 0.37734,0.10406 0.1225,0.0216 0.2774,0.0673 0.34423,0.10145 0.0668,0.0342 0.228,0.0808 0.35815,0.10344 0.13015,0.0227 0.28884,0.0652 0.35264,0.0944 0.15555,0.0713 0.24952,0.068 0.3435,-0.0118 0.0428,-0.0364 0.0937,-0.0662 0.11312,-0.0662 0.0194,0 0.0912,-0.0431 0.15956,-0.0958 0.0684,-0.0527 0.16087,-0.11125 0.20559,-0.13013 0.0447,-0.0189 0.10466,-0.0608 0.13318,-0.0933 0.0285,-0.0324 0.10146,-0.0814 0.16206,-0.10875 0.0606,-0.0274 0.14313,-0.0776 0.1834,-0.11151 0.0403,-0.034 0.11448,-0.0826 0.16492,-0.10816 0.0504,-0.0255 0.12117,-0.0737 0.1572,-0.10705 0.036,-0.0333 0.12128,-0.0868 0.18945,-0.11873 0.15229,-0.0714 0.21588,-0.17016 0.25553,-0.39678 0.0165,-0.0946 0.0521,-0.26131 0.0789,-0.37046 0.0269,-0.10916 0.0679,-0.39726 0.0913,-0.64024 0.0233,-0.24297 0.0704,-0.55853 0.10452,-0.70124 0.0341,-0.14271 0.0812,-0.45596 0.10465,-0.6961 0.0234,-0.24014 0.0718,-0.55988 0.10762,-0.71052 0.0358,-0.15064 0.0772,-0.40071 0.092,-0.5557 0.0447,-0.46863 0.0691,-0.50816 0.35263,-0.57323 0.10028,-0.023 0.26486,-0.0758 0.36573,-0.11724 0.10087,-0.0415 0.24825,-0.0838 0.3275,-0.0941 0.0793,-0.0103 0.22074,-0.0523 0.3144,-0.0933 0.0937,-0.041 0.27593,-0.0946 0.40503,-0.11899 0.1291,-0.0244 0.29165,-0.0744 0.36121,-0.11115 0.0706,-0.0373 0.21311,-0.0794 0.32238,-0.0953 l 0.19589,-0.0285 0.15823,0.17071 c 0.087,0.0939 0.20278,0.21834 0.25724,0.27656 0.14552,0.15554 0.86559,0.98569 0.97809,1.12761 0.0532,0.0671 0.1592,0.18918 0.23551,0.27122 0.0763,0.082 0.1859,0.20485 0.24354,0.27293 0.11058,0.13059 0.24567,0.28243 0.41921,0.47119 0.0576,0.0627 0.15196,0.1702 0.2096,0.2389 0.25764,0.3071 0.41955,0.45737 0.524,0.48636 0.067,0.0186 0.44144,0.0291 1.03845,0.0292 l 0.93365,10e-5 0.14056,-0.11847 c 0.0773,-0.0652 0.19951,-0.19123 0.27156,-0.28015 0.18123,-0.22366 0.73475,-0.8655 0.97759,-1.1336 0.11078,-0.1223 0.24013,-0.26519 0.28746,-0.31755 0.17544,-0.19409 0.70326,-0.81274 0.76979,-0.90228 0.0378,-0.0509 0.14374,-0.17246 0.2353,-0.27005 0.0916,-0.0976 0.18575,-0.20476 0.20931,-0.23816 0.0646,-0.0916 0.34076,-0.0833 0.57287,0.0172 0.0937,0.0406 0.26462,0.0941 0.3799,0.11899 0.11528,0.0249 0.29048,0.078 0.38933,0.11801 0.0989,0.04 0.2757,0.091 0.393,0.11338 0.1173,0.0223 0.26837,0.0688 0.33571,0.10326 0.0673,0.0344 0.20691,0.0767 0.31016,0.094 0.10325,0.0172 0.2107,0.0502 0.23878,0.0734 0.0369,0.0304 0.0648,0.11881 0.10093,0.3199 0.0274,0.15282 0.0679,0.3493 0.0899,0.43662 0.022,0.0873 0.0591,0.35525 0.0823,0.5954 0.0232,0.24014 0.0704,0.5557 0.10491,0.70124 0.0345,0.14554 0.0808,0.45515 0.10307,0.68801 0.0222,0.23287 0.0692,0.54843 0.10448,0.70125 0.0352,0.15281 0.0769,0.40757 0.0926,0.56612 0.0371,0.37533 0.0893,0.47259 0.31414,0.5849 0.0504,0.0252 0.12117,0.0736 0.1572,0.10754 0.036,0.034 0.10927,0.0802 0.16278,0.10277 0.0535,0.0226 0.13603,0.0752 0.1834,0.11691 0.0474,0.0417 0.11343,0.0845 0.1468,0.095 0.0334,0.0105 0.0998,0.0538 0.14765,0.0963 0.0478,0.0424 0.12858,0.0947 0.17941,0.11614 0.0508,0.0215 0.13144,0.075 0.17914,0.119 0.0477,0.044 0.10014,0.08 0.11656,0.08 0.0164,0 0.0744,0.0357 0.12877,0.0794 0.11719,0.0941 0.19701,0.0993 0.38348,0.025 0.0751,-0.0299 0.23175,-0.0725 0.34813,-0.0947 0.11638,-0.0222 0.29413,-0.0732 0.395,-0.1134 0.10087,-0.0402 0.26703,-0.0867 0.36924,-0.10338 0.10222,-0.0167 0.25042,-0.0601 0.32934,-0.0966 0.0789,-0.0365 0.23736,-0.0829 0.35208,-0.10313 0.11473,-0.0202 0.28705,-0.0685 0.38293,-0.10722 0.0959,-0.0387 0.27237,-0.089 0.39218,-0.11168 0.11981,-0.0227 0.27777,-0.0697 0.35102,-0.10454 0.0733,-0.0348 0.23744,-0.0817 0.36487,-0.10413 0.12743,-0.0224 0.28561,-0.0681 0.35152,-0.10154 0.31466,-0.15946 0.37164,-0.1361 0.72244,0.29611 0.0288,0.0355 0.0956,0.1136 0.14838,0.17354 0.0528,0.06 0.1589,0.18135 0.2358,0.2698 0.0769,0.0884 0.17194,0.19562 0.21119,0.23816 0.0663,0.0719 0.2866,0.33087 0.61639,0.7247 0.11232,0.13414 0.13755,0.18238 0.13755,0.26304 0,0.13355 -0.0691,0.35968 -0.14564,0.47646 -0.0345,0.0527 -0.0799,0.15332 -0.10086,0.22366 -0.021,0.0703 -0.0677,0.17301 -0.10381,0.22816 -0.0361,0.0551 -0.0844,0.16519 -0.10722,0.24454 -0.0228,0.0793 -0.0704,0.18384 -0.10577,0.23221 -0.0353,0.0484 -0.0819,0.14854 -0.10337,0.2226 -0.0215,0.074 -0.0678,0.17696 -0.10289,0.2287 -0.0351,0.0517 -0.0814,0.1539 -0.10288,0.22705 -0.0215,0.0731 -0.0749,0.19753 -0.11856,0.27641 -0.0437,0.0789 -0.0874,0.18772 -0.0972,0.24188 -0.01,0.0542 -0.0515,0.1522 -0.0927,0.21786 -0.0412,0.0657 -0.0933,0.18316 -0.11575,0.2611 -0.0224,0.0779 -0.0697,0.18129 -0.10504,0.22966 -0.0353,0.0484 -0.082,0.14855 -0.10363,0.2226 -0.0216,0.074 -0.0749,0.18823 -0.11841,0.25372 -0.11027,0.16614 -0.11067,0.34216 -0.001,0.50541 0.043,0.064 0.0969,0.18092 0.11989,0.25973 0.023,0.0788 0.0707,0.18597 0.10608,0.23816 0.0354,0.0522 0.0819,0.15546 0.10344,0.22952 0.0215,0.074 0.068,0.17422 0.10337,0.22259 0.0353,0.0484 0.0824,0.15104 0.1046,0.22814 0.0222,0.0771 0.0776,0.20319 0.12321,0.28019 0.0456,0.077 0.0969,0.16407 0.11417,0.19351 0.0511,0.0874 0.27916,0.195 0.50482,0.23823 0.11606,0.0222 0.2743,0.0697 0.35165,0.10546 0.0773,0.0358 0.23931,0.0839 0.35992,0.10704 0.12061,0.0231 0.27412,0.0701 0.34114,0.10438 0.067,0.0343 0.21807,0.0808 0.33569,0.10333 0.11761,0.0225 0.27088,0.0702 0.3406,0.10585 0.0697,0.0357 0.22609,0.0839 0.34749,0.10716 0.1214,0.0233 0.27427,0.0706 0.3397,0.1051 0.0654,0.0346 0.22347,0.0826 0.35118,0.10677 0.12771,0.0242 0.28705,0.072 0.35408,0.10632 0.067,0.0343 0.16838,0.0704 0.22522,0.0803 0.27095,0.0469 0.29649,0.0609 0.36626,0.19992 0.0831,0.16561 0.10841,0.30056 0.15717,0.83751 0.0214,0.23603 0.0677,0.5635 0.10278,0.72771 0.0729,0.34101 0.13267,0.86201 0.10958,0.95494 -0.0252,0.10134 -0.11793,0.2009 -0.25021,0.2686 -0.0679,0.0348 -0.13967,0.0829 -0.15942,0.1069 -0.0197,0.024 -0.0815,0.0672 -0.13732,0.096 -0.0558,0.0287 -0.15474,0.0934 -0.21991,0.14361 -0.0652,0.0502 -0.13524,0.0914 -0.15572,0.0914 -0.0205,0 -0.081,0.0417 -0.13445,0.0926 -0.0535,0.0509 -0.11155,0.0926 -0.12906,0.0926 -0.0175,0 -0.0852,0.0411 -0.15032,0.0913 -0.0652,0.0502 -0.16413,0.11487 -0.21991,0.14361 -0.0558,0.0287 -0.11753,0.0719 -0.13722,0.0958 -0.0197,0.024 -0.0814,0.0671 -0.13722,0.0958 -0.0558,0.0287 -0.15474,0.0934 -0.21991,0.14361 -0.0652,0.0502 -0.13322,0.0913 -0.15121,0.0913 -0.018,0 -0.0613,0.0314 -0.0962,0.0697 -0.0349,0.0384 -0.1131,0.0923 -0.1737,0.1198 -0.0606,0.0275 -0.14313,0.0779 -0.1834,0.11187 -0.0403,0.034 -0.12117,0.0864 -0.17977,0.11642 -0.0586,0.03 -0.12271,0.0743 -0.14246,0.0983 -0.0197,0.024 -0.0897,0.0713 -0.15545,0.10492 -0.0657,0.0337 -0.14052,0.0847 -0.16617,0.11335 -0.0256,0.0287 -0.0944,0.0739 -0.15276,0.10046 -0.0837,0.0381 -0.12158,0.0794 -0.17931,0.19552 -0.0776,0.15598 -0.11038,0.34488 -0.15896,0.91457 -0.0149,0.17465 -0.0577,0.44745 -0.0951,0.60623 -0.0962,0.40821 -0.0955,0.5372 0.004,0.65689 0.0432,0.052 0.13755,0.16832 0.2096,0.25845 0.14377,0.17983 0.30866,0.37884 0.44947,0.54247 0.0501,0.0582 0.13452,0.15643 0.18761,0.21825 0.0531,0.0618 0.14368,0.16487 0.20132,0.22898 0.0576,0.0641 0.16375,0.19074 0.2358,0.28138 0.21025,0.26449 0.50195,0.61286 0.79693,0.95172 0.37033,0.42544 0.52263,0.60599 0.57575,0.68259 0.0695,0.10025 0.0777,0.22834 0.0217,0.33901 -0.0213,0.0421 -0.0467,0.11399 -0.0565,0.15973 -0.01,0.0457 -0.052,0.13781 -0.094,0.20462 -0.042,0.0668 -0.0946,0.18525 -0.11707,0.26319 -0.0224,0.0779 -0.0697,0.18129 -0.10504,0.22967 -0.0353,0.0484 -0.0829,0.15287 -0.10577,0.23221 -0.0228,0.0793 -0.07,0.18774 -0.10482,0.24087 -0.0348,0.0531 -0.0805,0.15415 -0.10141,0.22449 -0.021,0.0703 -0.0666,0.17138 -0.10131,0.22455 -0.0348,0.0532 -0.0782,0.1443 -0.0964,0.20251 -0.0473,0.15058 -0.0943,0.2171 -0.19137,0.27069 -0.0787,0.0434 -0.24092,0.0478 -2.21513,0.0601 l -2.13023,0.0132 -0.15634,0.172 c -0.086,0.0946 -0.20618,0.22864 -0.26709,0.29788 -0.23878,0.27139 -0.29766,0.33878 -0.39179,0.44841 -0.0537,0.0626 -0.13877,0.16136 -0.18906,0.21957 -0.2745,0.31783 -0.35813,0.42598 -0.37174,0.48072 -0.0208,0.0839 0.0627,1.04242 0.11042,1.26717 0.0796,0.37501 0.0916,0.45818 0.12862,0.89831 0.0208,0.24742 0.0671,0.59448 0.10289,0.77124 0.0617,0.30494 0.14621,1.08025 0.14621,1.34127 0,0.15789 -0.0414,0.24481 -0.13523,0.28407 -0.0418,0.0175 -0.11901,0.0663 -0.17155,0.10848 -0.0525,0.0422 -0.14353,0.0984 -0.20222,0.12491 -0.0587,0.0265 -0.13004,0.0748 -0.15857,0.10719 -0.0285,0.0324 -0.0885,0.0744 -0.13318,0.0933 -0.0447,0.0189 -0.13724,0.0774 -0.20559,0.13012 -0.0684,0.0527 -0.14117,0.0958 -0.16181,0.0958 -0.0206,0 -0.0756,0.0368 -0.12215,0.0817 -0.0465,0.0449 -0.12441,0.0985 -0.17305,0.119 -0.0486,0.0205 -0.12759,0.072 -0.17543,0.11446 -0.0478,0.0424 -0.11429,0.0857 -0.14766,0.0962 -0.0334,0.0105 -0.10397,0.0583 -0.15688,0.10625 -0.0649,0.0588 -0.13425,0.0929 -0.21316,0.10489 -0.12538,0.019 -0.18656,-0.003 -0.31605,-0.11138 -0.0414,-0.0348 -0.118,-0.0813 -0.1703,-0.10332 -0.0523,-0.0221 -0.12456,-0.0686 -0.16059,-0.10346 -0.036,-0.0348 -0.10829,-0.0814 -0.16059,-0.10347 -0.0523,-0.0221 -0.12893,-0.0686 -0.1703,-0.10353 -0.0414,-0.0349 -0.11648,-0.0846 -0.16691,-0.11055 -0.0504,-0.0259 -0.12555,-0.0757 -0.16691,-0.11055 -0.0414,-0.0349 -0.11641,-0.0808 -0.16675,-0.10203 -0.0503,-0.0213 -0.13067,-0.0733 -0.17851,-0.11577 -0.0478,-0.0424 -0.11429,-0.0858 -0.14766,-0.0963 -0.0334,-0.0106 -0.0948,-0.048 -0.13646,-0.0832 -0.0417,-0.0352 -0.13085,-0.0922 -0.19815,-0.12663 -0.0673,-0.0344 -0.13914,-0.083 -0.15964,-0.10799 -0.0205,-0.025 -0.0905,-0.0683 -0.15556,-0.0964 -0.0651,-0.0281 -0.14775,-0.0794 -0.18377,-0.11405 -0.036,-0.0347 -0.1077,-0.0809 -0.15929,-0.10262 -0.0516,-0.0218 -0.10979,-0.059 -0.12935,-0.0829 -0.0196,-0.0238 -0.0953,-0.0737 -0.16822,-0.11092 -0.0729,-0.0372 -0.16649,-0.0963 -0.20786,-0.13123 -0.0414,-0.035 -0.11611,-0.0808 -0.16609,-0.10193 -0.05,-0.0211 -0.12554,-0.0678 -0.16791,-0.10382 -0.12174,-0.10347 -0.23057,-0.11108 -0.408,-0.0285 -0.0837,0.0389 -0.2784,0.0992 -0.43265,0.1338 -0.15425,0.0347 -0.32818,0.0876 -0.3865,0.11766 -0.0583,0.0301 -0.20329,0.0733 -0.32215,0.096 -0.11885,0.0228 -0.31315,0.0839 -0.43177,0.13597 -0.20764,0.0911 -0.21952,0.10108 -0.31883,0.26898 -0.0567,0.0959 -0.11501,0.21922 -0.12948,0.27401 -0.0145,0.0548 -0.0564,0.13574 -0.0932,0.17988 -0.0368,0.0441 -0.085,0.1418 -0.10708,0.21703 -0.0221,0.0752 -0.0688,0.18049 -0.10385,0.2339 -0.035,0.0534 -0.0823,0.16204 -0.10516,0.24138 -0.0228,0.0793 -0.071,0.18457 -0.10696,0.23385 -0.036,0.0493 -0.0777,0.13753 -0.0928,0.19613 -0.015,0.0586 -0.0663,0.17204 -0.11392,0.25209 -0.0476,0.0801 -0.1017,0.19317 -0.12017,0.25139 -0.0185,0.0582 -0.0602,0.14157 -0.0928,0.18523 -0.0326,0.0437 -0.0782,0.14593 -0.10146,0.22726 -0.0232,0.0813 -0.0712,0.18745 -0.1065,0.23583 -0.0353,0.0484 -0.0831,0.15348 -0.10616,0.23356 -0.0231,0.0801 -0.0709,0.18831 -0.10624,0.24049 -0.0354,0.0522 -0.0819,0.15442 -0.10335,0.22719 -0.0234,0.0794 -0.0849,0.18526 -0.15361,0.26462 l -0.11457,0.13231 -1.25385,0.005 c -0.72489,0.003 -1.279,-0.005 -1.31347,-0.0192 z m 2.40455,-11.88026 c 0.0937,-0.0158 0.27051,-0.0577 0.393,-0.0931 0.12248,-0.0355 0.30523,-0.0774 0.4061,-0.0933 0.10087,-0.0158 0.23138,-0.0571 0.29002,-0.0917 0.0586,-0.0346 0.18595,-0.0816 0.28292,-0.10429 0.097,-0.0227 0.21994,-0.0715 0.27329,-0.10835 0.0533,-0.0369 0.15901,-0.0854 0.23483,-0.1079 0.0758,-0.0225 0.17014,-0.0677 0.2096,-0.10044 0.0395,-0.0328 0.12402,-0.0803 0.1879,-0.10561 0.0639,-0.0253 0.15078,-0.0754 0.19311,-0.11141 0.0423,-0.036 0.11976,-0.0835 0.17206,-0.10553 0.0523,-0.0221 0.12456,-0.0679 0.16058,-0.10185 0.036,-0.034 0.10185,-0.0802 0.14626,-0.10283 0.0854,-0.0435 0.23732,-0.15984 0.42682,-0.32698 0.14565,-0.12847 0.7952,-0.78504 0.93343,-0.94353 0.20459,-0.23456 0.49629,-0.64016 0.52295,-0.72713 0.0103,-0.0337 0.0523,-0.0998 0.0932,-0.14687 0.0409,-0.0471 0.095,-0.13857 0.12013,-0.20334 0.0251,-0.0648 0.0721,-0.15013 0.10431,-0.1897 0.0322,-0.0396 0.0788,-0.13483 0.10355,-0.21169 0.0247,-0.0769 0.0723,-0.17682 0.10577,-0.22213 0.0334,-0.0453 0.0796,-0.16412 0.10251,-0.26403 0.0229,-0.0999 0.0718,-0.23347 0.10853,-0.29681 0.0403,-0.0695 0.0807,-0.2008 0.10196,-0.33136 0.0193,-0.11892 0.0642,-0.29361 0.0997,-0.38821 0.0407,-0.10831 0.0752,-0.2798 0.0934,-0.46309 0.0491,-0.49587 0.0818,-1.12387 0.068,-1.30698 -0.007,-0.0962 -0.0254,-0.35351 -0.0403,-0.57182 -0.0343,-0.50183 -0.0634,-0.68944 -0.13083,-0.84345 -0.0295,-0.0675 -0.07,-0.22437 -0.09,-0.34867 -0.0226,-0.14091 -0.0615,-0.26952 -0.10331,-0.34162 -0.0369,-0.0636 -0.0799,-0.17916 -0.0956,-0.25681 -0.0157,-0.0777 -0.0627,-0.19822 -0.10458,-0.26794 -0.0418,-0.0697 -0.0945,-0.19078 -0.11702,-0.26902 -0.0225,-0.0782 -0.06,-0.15814 -0.0833,-0.17755 -0.0233,-0.0194 -0.0814,-0.12163 -0.12912,-0.22714 -0.0477,-0.10552 -0.0974,-0.19185 -0.1105,-0.19185 -0.0131,0 -0.0548,-0.0625 -0.0927,-0.13893 -0.0652,-0.13141 -0.15614,-0.26303 -0.32252,-0.46671 -0.0403,-0.0493 -0.0858,-0.11248 -0.10113,-0.14041 -0.0879,-0.15988 -1.00241,-1.08265 -1.16163,-1.17207 -0.0263,-0.0148 -0.0877,-0.0602 -0.13653,-0.10103 -0.17042,-0.14247 -0.37764,-0.28656 -0.46828,-0.32561 -0.0502,-0.0216 -0.1152,-0.062 -0.14436,-0.0897 -0.0292,-0.0277 -0.12365,-0.0817 -0.20996,-0.12002 -0.0863,-0.0383 -0.18052,-0.0914 -0.20934,-0.11795 -0.0288,-0.0265 -0.11674,-0.0673 -0.19538,-0.0906 -0.0786,-0.0233 -0.18475,-0.0716 -0.2358,-0.10725 -0.0511,-0.0357 -0.17454,-0.084 -0.27441,-0.10733 -0.0999,-0.0234 -0.22956,-0.0707 -0.2882,-0.10523 -0.0618,-0.0364 -0.20572,-0.08 -0.34242,-0.10383 -0.12969,-0.0226 -0.30333,-0.065 -0.38586,-0.0944 -0.23485,-0.0834 -0.45309,-0.10572 -1.19925,-0.12278 -0.85892,-0.0196 -1.36459,0.0131 -1.67681,0.10855 -0.12249,0.0374 -0.32881,0.0864 -0.4585,0.10876 -0.14062,0.0243 -0.27993,0.0667 -0.3451,0.10513 -0.0601,0.0355 -0.18981,0.0831 -0.2882,0.1059 -0.0984,0.0228 -0.22197,0.0713 -0.27461,0.10776 -0.0526,0.0365 -0.15285,0.0836 -0.2227,0.10474 -0.0698,0.0211 -0.17416,0.0722 -0.2318,0.1135 -0.0576,0.0413 -0.14807,0.0893 -0.20096,0.10667 -0.0529,0.0174 -0.11113,0.0498 -0.12943,0.0721 -0.0183,0.0223 -0.0988,0.0741 -0.17895,0.11508 -0.0801,0.041 -0.17425,0.10553 -0.20918,0.14338 -0.0349,0.0378 -0.077,0.0688 -0.0935,0.0688 -0.0165,0 -0.0763,0.0393 -0.13298,0.0873 -0.0566,0.048 -0.14018,0.11051 -0.18566,0.13893 -0.24279,0.15171 -1.11046,1.03021 -1.21408,1.22923 -0.019,0.0364 -0.0798,0.11843 -0.13519,0.18234 -0.0554,0.0639 -0.10075,0.1303 -0.10075,0.14754 0,0.0172 -0.0285,0.0584 -0.0634,0.0916 -0.0349,0.0331 -0.0982,0.13364 -0.14063,0.22339 -0.0425,0.0898 -0.0958,0.17881 -0.11861,0.19791 -0.0228,0.0191 -0.0557,0.0784 -0.0731,0.13184 -0.0174,0.0534 -0.0711,0.15502 -0.11924,0.22578 -0.0482,0.0708 -0.0876,0.15028 -0.0876,0.1767 0,0.0264 -0.0415,0.12844 -0.0922,0.22673 -0.0507,0.0983 -0.11015,0.25676 -0.13206,0.35217 -0.0219,0.0954 -0.0643,0.21531 -0.0943,0.26645 -0.0299,0.0512 -0.0764,0.21577 -0.10323,0.36583 -0.0268,0.15005 -0.0789,0.38225 -0.1158,0.516 -0.14145,0.5134 -0.14323,1.96608 -0.003,2.50569 0.0359,0.13826 0.0847,0.36451 0.1084,0.50278 0.0237,0.13826 0.0763,0.32879 0.11696,0.42339 0.0406,0.0946 0.0862,0.23154 0.10128,0.30431 0.0151,0.0728 0.0694,0.21356 0.12071,0.31285 0.0513,0.0993 0.0933,0.20186 0.0933,0.22791 0,0.026 0.0347,0.0914 0.077,0.14527 0.0424,0.0539 0.0961,0.15579 0.11933,0.22653 0.0233,0.0707 0.0607,0.14401 0.0831,0.16282 0.0224,0.0188 0.075,0.10543 0.11671,0.19248 0.0418,0.087 0.0882,0.16595 0.10324,0.17533 0.0268,0.0167 0.10989,0.13234 0.30358,0.42238 0.0535,0.0801 0.1275,0.17695 0.16455,0.21534 0.037,0.0384 0.12041,0.13026 0.18525,0.20416 0.2872,0.32732 0.74374,0.76561 0.89678,0.86093 0.0471,0.0294 0.13207,0.0927 0.1887,0.14065 0.0566,0.048 0.11647,0.0873 0.13298,0.0873 0.0165,0 0.0586,0.0312 0.0935,0.0693 0.0349,0.0381 0.11398,0.0915 0.17567,0.11849 0.0617,0.027 0.15601,0.0837 0.20961,0.12585 0.0536,0.0422 0.13765,0.0901 0.1868,0.10655 0.0492,0.0164 0.12579,0.0577 0.1703,0.0918 0.0445,0.0341 0.14021,0.0817 0.21265,0.10591 0.0725,0.0242 0.17408,0.073 0.22587,0.10854 0.0518,0.0355 0.17323,0.0831 0.26989,0.10578 0.0967,0.0226 0.22527,0.0705 0.28581,0.10632 0.0704,0.0417 0.19955,0.0796 0.3582,0.10522 0.13647,0.022 0.34834,0.071 0.47083,0.10878 0.13733,0.0424 0.33319,0.0773 0.5109,0.0912 0.37414,0.0292 1.75814,0.0109 1.97812,-0.026 z"
         id="path2248-5"
         sodipodi:nodetypes="ccsscscccccscssccsccccccssccccscscsccssscccccccsccscscscssssssccscsscscssscscscsssssssscssssscsscsscsscsscscssscsssssssssssscssssscccsscscscsscccssscscsssssscsscssssssssscccsssssssssssscsssscssssssssccsssscssssssssssssscsssscsccccssccssssscsccssscssscccscccscccsscccccscscssssscscssssssssccsscscsscsssccsscsscscssccssssccccsccccccscsccscsscsccccssssccccccssssssccscccscsccsccscccsssccsccssccsssssscsccscccscscscsscsscssccsssccsssscccsccsscsscsscscccsssssssssssscssssssscscsccsssccssssscsssscscssssssccccsscccscss" />
    </g>
    <g
       transform="matrix(0.93332889,0,0,0.9333436,-253.00097,748.28789)"
       id="layer1-9"
       inkscape:label="Layer 1"
       style="stroke:#000000;stroke-opacity:1;stroke-width:1.07142523000000000;stroke-miterlimit:4;stroke-dasharray:none;fill-opacity:1;fill:url(#linearGradient3788);opacity:0.75">
      <path
         inkscape:connector-curvature="0"
         style="fill:url(#linearGradient3788);stroke:#000000;stroke-opacity:1;stroke-width:1.07142523000000000;stroke-miterlimit:4;stroke-dasharray:none;fill-opacity:1"
         d="m 289.07922,325.23511 c -0.0346,-0.0143 -0.0814,-0.076 -0.11158,-0.14699 -0.0286,-0.0673 -0.0748,-0.1518 -0.1028,-0.18771 -0.028,-0.0359 -0.07,-0.13193 -0.0935,-0.21337 -0.0234,-0.0815 -0.0714,-0.18614 -0.10648,-0.23265 -0.0351,-0.0465 -0.0833,-0.14276 -0.10717,-0.21389 -0.0238,-0.0711 -0.0716,-0.17283 -0.10624,-0.226 -0.0346,-0.0532 -0.0801,-0.15421 -0.10103,-0.22455 -0.021,-0.0703 -0.0663,-0.17098 -0.10086,-0.22365 -0.0345,-0.0527 -0.0808,-0.15728 -0.10293,-0.23244 -0.0221,-0.0752 -0.0753,-0.18704 -0.11831,-0.24862 -0.043,-0.0616 -0.0905,-0.15988 -0.1055,-0.21849 -0.0151,-0.0586 -0.0568,-0.14686 -0.0928,-0.19613 -0.036,-0.0493 -0.0841,-0.15451 -0.10697,-0.23385 -0.0228,-0.0793 -0.0711,-0.18939 -0.10723,-0.24454 -0.0361,-0.0551 -0.0828,-0.15769 -0.10372,-0.22787 -0.0209,-0.0702 -0.0665,-0.16958 -0.1014,-0.22088 -0.0349,-0.0513 -0.0878,-0.15979 -0.11765,-0.24108 -0.062,-0.16881 -0.12811,-0.24133 -0.27679,-0.30354 -0.0574,-0.024 -0.15437,-0.0665 -0.2154,-0.0944 -0.061,-0.0279 -0.20471,-0.0686 -0.31931,-0.0906 -0.1146,-0.022 -0.27099,-0.0686 -0.34755,-0.10365 -0.0765,-0.035 -0.23941,-0.0827 -0.36189,-0.10583 -0.12249,-0.0232 -0.279,-0.0718 -0.3478,-0.10817 -0.0688,-0.0363 -0.17545,-0.073 -0.23698,-0.0815 -0.0952,-0.0132 -0.12406,-0.005 -0.19364,0.054 -0.045,0.0382 -0.14464,0.0977 -0.22152,0.13208 -0.0769,0.0344 -0.16311,0.0888 -0.19164,0.1208 -0.0285,0.032 -0.0915,0.0749 -0.13989,0.0953 -0.0484,0.0204 -0.12377,0.0675 -0.16745,0.10464 -0.0437,0.0371 -0.12221,0.0856 -0.17451,0.10762 -0.0523,0.0221 -0.12456,0.0679 -0.16058,0.10196 -0.036,0.034 -0.11404,0.0864 -0.17336,0.11641 -0.0593,0.03 -0.14185,0.0833 -0.1834,0.11837 -0.0416,0.0351 -0.10285,0.0724 -0.13622,0.083 -0.0334,0.0106 -0.0998,0.0539 -0.14766,0.0963 -0.0478,0.0424 -0.13254,0.0961 -0.18823,0.11928 -0.0557,0.0232 -0.12819,0.0673 -0.16113,0.098 -0.0574,0.0536 -0.12255,0.0949 -0.42543,0.26981 -0.0756,0.0437 -0.17579,0.11218 -0.22263,0.15225 -0.0469,0.0401 -0.13073,0.0918 -0.18641,0.11492 -0.0557,0.0231 -0.13072,0.0701 -0.16675,0.10436 -0.036,0.0343 -0.10689,0.0798 -0.15747,0.10109 -0.0506,0.0213 -0.12442,0.0692 -0.16407,0.10629 -0.086,0.0805 -0.25147,0.13557 -0.33984,0.11317 -0.0349,-0.009 -0.1097,-0.0532 -0.16613,-0.0985 -0.0564,-0.0453 -0.14386,-0.0998 -0.19429,-0.12108 -0.0504,-0.0213 -0.12118,-0.0665 -0.15721,-0.10043 -0.036,-0.034 -0.10473,-0.0817 -0.15268,-0.10619 -0.048,-0.0245 -0.14022,-0.0853 -0.20505,-0.13533 -0.0648,-0.05 -0.13284,-0.0909 -0.15111,-0.0909 -0.0183,0 -0.0557,-0.0251 -0.0831,-0.0558 -0.0275,-0.0307 -0.11475,-0.0889 -0.19401,-0.12942 -0.0793,-0.0405 -0.16559,-0.0976 -0.19185,-0.127 -0.0263,-0.0294 -0.0852,-0.0686 -0.131,-0.0871 -0.0458,-0.0186 -0.11736,-0.062 -0.15904,-0.0965 -0.0417,-0.0345 -0.13259,-0.0919 -0.20202,-0.1274 -0.1706,-0.0873 -0.1945,-0.17508 -0.15536,-0.57051 0.0284,-0.28677 0.0412,-0.36668 0.11653,-0.72474 0.0214,-0.10188 0.0573,-0.39958 0.0798,-0.66155 0.0225,-0.26197 0.0701,-0.61984 0.10576,-0.79527 0.0357,-0.17542 0.0823,-0.5267 0.10365,-0.78063 0.0213,-0.25392 0.0616,-0.5738 0.0895,-0.71085 0.0279,-0.13705 0.0436,-0.26804 0.0349,-0.29109 -0.0189,-0.0498 -0.16809,-0.25015 -0.25702,-0.34502 -0.1945,-0.20748 -0.81067,-0.92486 -0.95081,-1.10698 -0.048,-0.0624 -0.13265,-0.13683 -0.18807,-0.16539 -0.0976,-0.0503 -0.16598,-0.0519 -2.20158,-0.0519 l -2.1008,0 -0.12383,-0.1257 c -0.094,-0.0954 -0.1346,-0.1634 -0.16854,-0.2822 -0.0246,-0.0861 -0.0737,-0.19921 -0.10904,-0.25139 -0.0354,-0.0522 -0.0819,-0.15547 -0.10344,-0.22952 -0.0215,-0.074 -0.068,-0.17422 -0.10336,-0.2226 -0.0353,-0.0484 -0.0829,-0.15287 -0.10578,-0.23221 -0.0228,-0.0793 -0.0711,-0.18939 -0.10722,-0.24454 -0.0361,-0.0551 -0.0829,-0.15782 -0.10381,-0.22816 -0.021,-0.0703 -0.068,-0.17344 -0.10444,-0.22912 -0.0804,-0.12273 -0.15518,-0.41205 -0.13131,-0.50812 0.01,-0.0384 0.0553,-0.10967 0.10156,-0.1583 0.0463,-0.0486 0.14314,-0.16219 0.21519,-0.25236 0.14928,-0.18682 0.34154,-0.41771 0.46557,-0.5591 0.0465,-0.0531 0.1318,-0.15129 0.18944,-0.21828 0.0576,-0.067 0.14606,-0.16768 0.1965,-0.22377 0.0504,-0.0561 0.15065,-0.1771 0.2227,-0.26892 0.14255,-0.18167 0.47799,-0.58499 0.62694,-0.7538 0.0951,-0.1078 0.13843,-0.15784 0.50933,-0.58848 0.13769,-0.15987 0.21617,-0.27469 0.22677,-0.33178 0.0224,-0.12073 -0.0335,-0.70237 -0.0921,-0.95854 -0.0513,-0.22424 -0.0899,-0.48511 -0.1285,-0.86995 -0.027,-0.26917 -0.0639,-0.33643 -0.24291,-0.44264 -0.0644,-0.0382 -0.14818,-0.10087 -0.18616,-0.13923 -0.038,-0.0384 -0.0864,-0.0697 -0.10754,-0.0697 -0.0212,0 -0.0918,-0.0411 -0.15697,-0.0913 -0.0652,-0.0502 -0.16413,-0.11487 -0.21991,-0.14361 -0.0558,-0.0287 -0.11753,-0.0719 -0.13722,-0.0958 -0.0197,-0.024 -0.0814,-0.0671 -0.13722,-0.0958 -0.0558,-0.0287 -0.15474,-0.0934 -0.21991,-0.14361 -0.0652,-0.0502 -0.13321,-0.0913 -0.15121,-0.0913 -0.018,0 -0.0613,-0.0314 -0.0962,-0.0697 -0.0349,-0.0384 -0.1131,-0.0923 -0.1737,-0.11979 -0.0606,-0.0275 -0.14313,-0.0779 -0.1834,-0.11187 -0.0403,-0.034 -0.12116,-0.0864 -0.17977,-0.11643 -0.0586,-0.03 -0.12266,-0.0742 -0.14235,-0.0982 -0.0197,-0.024 -0.0837,-0.0678 -0.14235,-0.0975 -0.0586,-0.0296 -0.13602,-0.0817 -0.17205,-0.11574 -0.036,-0.034 -0.107,-0.0793 -0.15773,-0.10075 -0.0507,-0.0214 -0.11558,-0.0651 -0.1441,-0.0971 -0.0285,-0.032 -0.11082,-0.0847 -0.18287,-0.11699 -0.0721,-0.0323 -0.14795,-0.0795 -0.16866,-0.10482 -0.0207,-0.0253 -0.0924,-0.074 -0.15923,-0.10826 -0.12186,-0.0624 -0.23873,-0.18893 -0.27167,-0.29419 -0.01,-0.0312 0.0182,-0.22578 0.0627,-0.43662 0.0442,-0.20922 0.098,-0.57688 0.11956,-0.81702 0.0216,-0.24014 0.0572,-0.50807 0.0792,-0.59539 0.022,-0.0873 0.0624,-0.28381 0.0898,-0.43663 0.0591,-0.32949 0.0762,-0.34931 0.33909,-0.39315 0.10291,-0.0172 0.24248,-0.0605 0.31016,-0.0962 0.0677,-0.0357 0.22238,-0.084 0.34378,-0.10726 0.1214,-0.0233 0.27467,-0.0699 0.3406,-0.10354 0.0659,-0.0337 0.22009,-0.0815 0.34258,-0.10618 0.12248,-0.0247 0.28539,-0.0744 0.36201,-0.11047 0.0766,-0.036 0.22786,-0.0827 0.33609,-0.10357 0.10824,-0.0209 0.27546,-0.0724 0.3716,-0.11449 0.0961,-0.0421 0.25602,-0.0903 0.35529,-0.10731 0.0993,-0.017 0.2378,-0.0602 0.30785,-0.096 0.07,-0.0358 0.21829,-0.0828 0.32942,-0.10423 0.31192,-0.0603 0.36132,-0.0843 0.51275,-0.24951 0.10863,-0.1185 0.15112,-0.18999 0.18464,-0.31064 0.0239,-0.0862 0.0728,-0.19675 0.10852,-0.24568 0.0358,-0.0489 0.0837,-0.15389 0.10652,-0.23323 0.0228,-0.0793 0.07,-0.18774 0.10482,-0.24087 0.0348,-0.0531 0.0802,-0.15322 0.10079,-0.22242 0.0206,-0.0692 0.0769,-0.18781 0.12505,-0.2636 0.082,-0.12894 0.0876,-0.15242 0.0876,-0.36558 0,-0.21042 -0.006,-0.23823 -0.0842,-0.3647 -0.0463,-0.0753 -0.1024,-0.19883 -0.12465,-0.2745 -0.0222,-0.0757 -0.0706,-0.18149 -0.10739,-0.23514 -0.0368,-0.0537 -0.0832,-0.15963 -0.10297,-0.23549 -0.0198,-0.0759 -0.0646,-0.18157 -0.0996,-0.23489 -0.0349,-0.0533 -0.0836,-0.16654 -0.10803,-0.25158 -0.0245,-0.085 -0.0741,-0.19974 -0.11021,-0.25489 -0.0361,-0.0552 -0.0829,-0.15783 -0.10381,-0.22816 -0.021,-0.0703 -0.0666,-0.17136 -0.10141,-0.2245 -0.0348,-0.0531 -0.082,-0.16152 -0.10482,-0.24086 -0.0228,-0.0793 -0.0704,-0.18384 -0.10577,-0.23222 -0.0353,-0.0484 -0.0829,-0.15287 -0.10577,-0.23221 -0.0228,-0.0793 -0.0711,-0.18939 -0.10722,-0.24454 -0.0361,-0.0552 -0.0829,-0.15782 -0.10381,-0.22816 -0.021,-0.0703 -0.0677,-0.173 -0.10381,-0.22815 -0.0709,-0.10827 -0.12528,-0.33429 -0.0985,-0.40963 0.009,-0.0256 0.053,-0.0837 0.0975,-0.12901 0.0445,-0.0453 0.1245,-0.13466 0.1777,-0.19847 0.0532,-0.0638 0.15933,-0.19122 0.23581,-0.28314 0.4621,-0.55541 0.83507,-0.98309 1.07152,-1.22874 0.17384,-0.18061 0.22274,-0.18853 0.46104,-0.0747 0.0891,0.0426 0.266,0.0969 0.393,0.12069 0.127,0.0238 0.2937,0.072 0.37045,0.10722 0.0768,0.0352 0.23983,0.0817 0.3624,0.10327 0.12257,0.0216 0.28717,0.069 0.36578,0.10538 0.0786,0.0363 0.1867,0.0732 0.2402,0.0819 0.21529,0.0351 0.36677,0.0755 0.51392,0.13714 0.0851,0.0356 0.25485,0.0825 0.37734,0.10406 0.1225,0.0216 0.2774,0.0673 0.34423,0.10145 0.0668,0.0342 0.228,0.0808 0.35815,0.10344 0.13015,0.0227 0.28884,0.0652 0.35264,0.0944 0.15555,0.0713 0.24952,0.068 0.3435,-0.0118 0.0428,-0.0364 0.0937,-0.0662 0.11312,-0.0662 0.0194,0 0.0912,-0.0431 0.15956,-0.0958 0.0684,-0.0527 0.16087,-0.11125 0.20559,-0.13013 0.0447,-0.0189 0.10466,-0.0608 0.13318,-0.0933 0.0285,-0.0324 0.10146,-0.0814 0.16206,-0.10875 0.0606,-0.0274 0.14313,-0.0776 0.1834,-0.11151 0.0403,-0.034 0.11448,-0.0826 0.16492,-0.10816 0.0504,-0.0255 0.12117,-0.0737 0.1572,-0.10705 0.036,-0.0333 0.12128,-0.0868 0.18945,-0.11873 0.15229,-0.0714 0.21588,-0.17016 0.25553,-0.39678 0.0165,-0.0946 0.0521,-0.26131 0.0789,-0.37046 0.0269,-0.10916 0.0679,-0.39726 0.0913,-0.64024 0.0233,-0.24297 0.0704,-0.55853 0.10452,-0.70124 0.0341,-0.14271 0.0812,-0.45596 0.10465,-0.6961 0.0234,-0.24014 0.0718,-0.55988 0.10762,-0.71052 0.0358,-0.15064 0.0772,-0.40071 0.092,-0.5557 0.0447,-0.46863 0.0691,-0.50816 0.35263,-0.57323 0.10028,-0.023 0.26486,-0.0758 0.36573,-0.11724 0.10087,-0.0415 0.24825,-0.0838 0.3275,-0.0941 0.0793,-0.0103 0.22074,-0.0523 0.3144,-0.0933 0.0937,-0.041 0.27593,-0.0946 0.40503,-0.11899 0.1291,-0.0244 0.29165,-0.0744 0.36121,-0.11115 0.0706,-0.0373 0.21311,-0.0794 0.32238,-0.0953 l 0.19589,-0.0285 0.15823,0.17071 c 0.087,0.0939 0.20278,0.21834 0.25724,0.27656 0.14552,0.15554 0.86559,0.98569 0.97809,1.12761 0.0532,0.0671 0.1592,0.18918 0.23551,0.27122 0.0763,0.082 0.1859,0.20485 0.24354,0.27293 0.11058,0.13059 0.24567,0.28243 0.41921,0.47119 0.0576,0.0627 0.15196,0.1702 0.2096,0.2389 0.25764,0.3071 0.41955,0.45737 0.524,0.48636 0.067,0.0186 0.44144,0.0291 1.03845,0.0292 l 0.93365,10e-5 0.14056,-0.11847 c 0.0773,-0.0652 0.19951,-0.19123 0.27156,-0.28015 0.18123,-0.22366 0.73475,-0.8655 0.97759,-1.1336 0.11078,-0.1223 0.24013,-0.26519 0.28746,-0.31755 0.17544,-0.19409 0.70326,-0.81274 0.76979,-0.90228 0.0378,-0.0509 0.14374,-0.17246 0.2353,-0.27005 0.0916,-0.0976 0.18575,-0.20476 0.20931,-0.23816 0.0646,-0.0916 0.34076,-0.0833 0.57287,0.0172 0.0937,0.0406 0.26462,0.0941 0.3799,0.11899 0.11528,0.0249 0.29048,0.078 0.38933,0.11801 0.0989,0.04 0.2757,0.091 0.393,0.11338 0.1173,0.0223 0.26837,0.0688 0.33571,0.10326 0.0673,0.0344 0.20691,0.0767 0.31016,0.094 0.10325,0.0172 0.2107,0.0502 0.23878,0.0734 0.0369,0.0304 0.0648,0.11881 0.10093,0.3199 0.0274,0.15282 0.0679,0.3493 0.0899,0.43662 0.022,0.0873 0.0591,0.35525 0.0823,0.5954 0.0232,0.24014 0.0704,0.5557 0.10491,0.70124 0.0345,0.14554 0.0808,0.45515 0.10307,0.68801 0.0222,0.23287 0.0692,0.54843 0.10448,0.70125 0.0352,0.15281 0.0769,0.40757 0.0926,0.56612 0.0371,0.37533 0.0893,0.47259 0.31414,0.5849 0.0504,0.0252 0.12117,0.0736 0.1572,0.10754 0.036,0.034 0.10927,0.0802 0.16278,0.10277 0.0535,0.0226 0.13603,0.0752 0.1834,0.11691 0.0474,0.0417 0.11343,0.0845 0.1468,0.095 0.0334,0.0105 0.0998,0.0538 0.14765,0.0963 0.0478,0.0424 0.12858,0.0947 0.17941,0.11614 0.0508,0.0215 0.13144,0.075 0.17914,0.119 0.0477,0.044 0.10014,0.08 0.11656,0.08 0.0164,0 0.0744,0.0357 0.12877,0.0794 0.11719,0.0941 0.19701,0.0993 0.38348,0.025 0.0751,-0.0299 0.23175,-0.0725 0.34813,-0.0947 0.11638,-0.0222 0.29413,-0.0732 0.395,-0.1134 0.10087,-0.0402 0.26703,-0.0867 0.36924,-0.10338 0.10222,-0.0167 0.25042,-0.0601 0.32934,-0.0966 0.0789,-0.0365 0.23736,-0.0829 0.35208,-0.10313 0.11473,-0.0202 0.28705,-0.0685 0.38293,-0.10722 0.0959,-0.0387 0.27237,-0.089 0.39218,-0.11168 0.11981,-0.0227 0.27777,-0.0697 0.35102,-0.10454 0.0733,-0.0348 0.23744,-0.0817 0.36487,-0.10413 0.12743,-0.0224 0.28561,-0.0681 0.35152,-0.10154 0.31466,-0.15946 0.37164,-0.1361 0.72244,0.29611 0.0288,0.0355 0.0956,0.1136 0.14838,0.17354 0.0528,0.06 0.1589,0.18135 0.2358,0.2698 0.0769,0.0884 0.17194,0.19562 0.21119,0.23816 0.0663,0.0719 0.2866,0.33087 0.61639,0.7247 0.11232,0.13414 0.13755,0.18238 0.13755,0.26304 0,0.13355 -0.0691,0.35968 -0.14564,0.47646 -0.0345,0.0527 -0.0799,0.15332 -0.10086,0.22366 -0.021,0.0703 -0.0677,0.17301 -0.10381,0.22816 -0.0361,0.0551 -0.0844,0.16519 -0.10722,0.24454 -0.0228,0.0793 -0.0704,0.18384 -0.10577,0.23221 -0.0353,0.0484 -0.0819,0.14854 -0.10337,0.2226 -0.0215,0.074 -0.0678,0.17696 -0.10289,0.2287 -0.0351,0.0517 -0.0814,0.1539 -0.10288,0.22705 -0.0215,0.0731 -0.0749,0.19753 -0.11856,0.27641 -0.0437,0.0789 -0.0874,0.18772 -0.0972,0.24188 -0.01,0.0542 -0.0515,0.1522 -0.0927,0.21786 -0.0412,0.0657 -0.0933,0.18316 -0.11575,0.2611 -0.0224,0.0779 -0.0697,0.18129 -0.10504,0.22966 -0.0353,0.0484 -0.082,0.14855 -0.10363,0.2226 -0.0216,0.074 -0.0749,0.18823 -0.11841,0.25372 -0.11027,0.16614 -0.11067,0.34216 -0.001,0.50541 0.043,0.064 0.0969,0.18092 0.11989,0.25973 0.023,0.0788 0.0707,0.18597 0.10608,0.23816 0.0354,0.0522 0.0819,0.15546 0.10344,0.22952 0.0215,0.074 0.068,0.17422 0.10337,0.22259 0.0353,0.0484 0.0824,0.15104 0.1046,0.22814 0.0222,0.0771 0.0776,0.20319 0.12321,0.28019 0.0456,0.077 0.0969,0.16407 0.11417,0.19351 0.0511,0.0874 0.27916,0.195 0.50482,0.23823 0.11606,0.0222 0.2743,0.0697 0.35165,0.10546 0.0773,0.0358 0.23931,0.0839 0.35992,0.10704 0.12061,0.0231 0.27412,0.0701 0.34114,0.10438 0.067,0.0343 0.21807,0.0808 0.33569,0.10333 0.11761,0.0225 0.27088,0.0702 0.3406,0.10585 0.0697,0.0357 0.22609,0.0839 0.34749,0.10716 0.1214,0.0233 0.27427,0.0706 0.3397,0.1051 0.0654,0.0346 0.22347,0.0826 0.35118,0.10677 0.12771,0.0242 0.28705,0.072 0.35408,0.10632 0.067,0.0343 0.16838,0.0704 0.22522,0.0803 0.27095,0.0469 0.29649,0.0609 0.36626,0.19992 0.0831,0.16561 0.10841,0.30056 0.15717,0.83751 0.0214,0.23603 0.0677,0.5635 0.10278,0.72771 0.0729,0.34101 0.13267,0.86201 0.10958,0.95494 -0.0252,0.10134 -0.11793,0.2009 -0.25021,0.2686 -0.0679,0.0348 -0.13967,0.0829 -0.15942,0.1069 -0.0197,0.024 -0.0815,0.0672 -0.13732,0.096 -0.0558,0.0287 -0.15474,0.0934 -0.21991,0.14361 -0.0652,0.0502 -0.13524,0.0914 -0.15572,0.0914 -0.0205,0 -0.081,0.0417 -0.13445,0.0926 -0.0535,0.0509 -0.11155,0.0926 -0.12906,0.0926 -0.0175,0 -0.0852,0.0411 -0.15032,0.0913 -0.0652,0.0502 -0.16413,0.11487 -0.21991,0.14361 -0.0558,0.0287 -0.11753,0.0719 -0.13722,0.0958 -0.0197,0.024 -0.0814,0.0671 -0.13722,0.0958 -0.0558,0.0287 -0.15474,0.0934 -0.21991,0.14361 -0.0652,0.0502 -0.13322,0.0913 -0.15121,0.0913 -0.018,0 -0.0613,0.0314 -0.0962,0.0697 -0.0349,0.0384 -0.1131,0.0923 -0.1737,0.1198 -0.0606,0.0275 -0.14313,0.0779 -0.1834,0.11187 -0.0403,0.034 -0.12117,0.0864 -0.17977,0.11642 -0.0586,0.03 -0.12271,0.0743 -0.14246,0.0983 -0.0197,0.024 -0.0897,0.0713 -0.15545,0.10492 -0.0657,0.0337 -0.14052,0.0847 -0.16617,0.11335 -0.0256,0.0287 -0.0944,0.0739 -0.15276,0.10046 -0.0837,0.0381 -0.12158,0.0794 -0.17931,0.19552 -0.0776,0.15598 -0.11038,0.34488 -0.15896,0.91457 -0.0149,0.17465 -0.0577,0.44745 -0.0951,0.60623 -0.0962,0.40821 -0.0955,0.5372 0.004,0.65689 0.0432,0.052 0.13755,0.16832 0.2096,0.25845 0.14377,0.17983 0.30866,0.37884 0.44947,0.54247 0.0501,0.0582 0.13452,0.15643 0.18761,0.21825 0.0531,0.0618 0.14368,0.16487 0.20132,0.22898 0.0576,0.0641 0.16375,0.19074 0.2358,0.28138 0.21025,0.26449 0.50195,0.61286 0.79693,0.95172 0.37033,0.42544 0.52263,0.60599 0.57575,0.68259 0.0695,0.10025 0.0777,0.22834 0.0217,0.33901 -0.0213,0.0421 -0.0467,0.11399 -0.0565,0.15973 -0.01,0.0457 -0.052,0.13781 -0.094,0.20462 -0.042,0.0668 -0.0946,0.18525 -0.11707,0.26319 -0.0224,0.0779 -0.0697,0.18129 -0.10504,0.22967 -0.0353,0.0484 -0.0829,0.15287 -0.10577,0.23221 -0.0228,0.0793 -0.07,0.18774 -0.10482,0.24087 -0.0348,0.0531 -0.0805,0.15415 -0.10141,0.22449 -0.021,0.0703 -0.0666,0.17138 -0.10131,0.22455 -0.0348,0.0532 -0.0782,0.1443 -0.0964,0.20251 -0.0473,0.15058 -0.0943,0.2171 -0.19137,0.27069 -0.0787,0.0434 -0.24092,0.0478 -2.21513,0.0601 l -2.13023,0.0132 -0.15634,0.172 c -0.086,0.0946 -0.20618,0.22864 -0.26709,0.29788 -0.23878,0.27139 -0.29766,0.33878 -0.39179,0.44841 -0.0537,0.0626 -0.13877,0.16136 -0.18906,0.21957 -0.2745,0.31783 -0.35813,0.42598 -0.37174,0.48072 -0.0208,0.0839 0.0627,1.04242 0.11042,1.26717 0.0796,0.37501 0.0916,0.45818 0.12862,0.89831 0.0208,0.24742 0.0671,0.59448 0.10289,0.77124 0.0617,0.30494 0.14621,1.08025 0.14621,1.34127 0,0.15789 -0.0414,0.24481 -0.13523,0.28407 -0.0418,0.0175 -0.11901,0.0663 -0.17155,0.10848 -0.0525,0.0422 -0.14353,0.0984 -0.20222,0.12491 -0.0587,0.0265 -0.13004,0.0748 -0.15857,0.10719 -0.0285,0.0324 -0.0885,0.0744 -0.13318,0.0933 -0.0447,0.0189 -0.13724,0.0774 -0.20559,0.13012 -0.0684,0.0527 -0.14117,0.0958 -0.16181,0.0958 -0.0206,0 -0.0756,0.0368 -0.12215,0.0817 -0.0465,0.0449 -0.12441,0.0985 -0.17305,0.119 -0.0486,0.0205 -0.12759,0.072 -0.17543,0.11446 -0.0478,0.0424 -0.11429,0.0857 -0.14766,0.0962 -0.0334,0.0105 -0.10397,0.0583 -0.15688,0.10625 -0.0649,0.0588 -0.13425,0.0929 -0.21316,0.10489 -0.12538,0.019 -0.18656,-0.003 -0.31605,-0.11138 -0.0414,-0.0348 -0.118,-0.0813 -0.1703,-0.10332 -0.0523,-0.0221 -0.12456,-0.0686 -0.16059,-0.10346 -0.036,-0.0348 -0.10829,-0.0814 -0.16059,-0.10347 -0.0523,-0.0221 -0.12893,-0.0686 -0.1703,-0.10353 -0.0414,-0.0349 -0.11648,-0.0846 -0.16691,-0.11055 -0.0504,-0.0259 -0.12555,-0.0757 -0.16691,-0.11055 -0.0414,-0.0349 -0.11641,-0.0808 -0.16675,-0.10203 -0.0503,-0.0213 -0.13067,-0.0733 -0.17851,-0.11577 -0.0478,-0.0424 -0.11429,-0.0858 -0.14766,-0.0963 -0.0334,-0.0106 -0.0948,-0.048 -0.13646,-0.0832 -0.0417,-0.0352 -0.13085,-0.0922 -0.19815,-0.12663 -0.0673,-0.0344 -0.13914,-0.083 -0.15964,-0.10799 -0.0205,-0.025 -0.0905,-0.0683 -0.15556,-0.0964 -0.0651,-0.0281 -0.14775,-0.0794 -0.18377,-0.11405 -0.036,-0.0347 -0.1077,-0.0809 -0.15929,-0.10262 -0.0516,-0.0218 -0.10979,-0.059 -0.12935,-0.0829 -0.0196,-0.0238 -0.0953,-0.0737 -0.16822,-0.11092 -0.0729,-0.0372 -0.16649,-0.0963 -0.20786,-0.13123 -0.0414,-0.035 -0.11611,-0.0808 -0.16609,-0.10193 -0.05,-0.0211 -0.12554,-0.0678 -0.16791,-0.10382 -0.12174,-0.10347 -0.23057,-0.11108 -0.408,-0.0285 -0.0837,0.0389 -0.2784,0.0992 -0.43265,0.1338 -0.15425,0.0347 -0.32818,0.0876 -0.3865,0.11766 -0.0583,0.0301 -0.20329,0.0733 -0.32215,0.096 -0.11885,0.0228 -0.31315,0.0839 -0.43177,0.13597 -0.20764,0.0911 -0.21952,0.10108 -0.31883,0.26898 -0.0567,0.0959 -0.11501,0.21922 -0.12948,0.27401 -0.0145,0.0548 -0.0564,0.13574 -0.0932,0.17988 -0.0368,0.0441 -0.085,0.1418 -0.10708,0.21703 -0.0221,0.0752 -0.0688,0.18049 -0.10385,0.2339 -0.035,0.0534 -0.0823,0.16204 -0.10516,0.24138 -0.0228,0.0793 -0.071,0.18457 -0.10696,0.23385 -0.036,0.0493 -0.0777,0.13753 -0.0928,0.19613 -0.015,0.0586 -0.0663,0.17204 -0.11392,0.25209 -0.0476,0.0801 -0.1017,0.19317 -0.12017,0.25139 -0.0185,0.0582 -0.0602,0.14157 -0.0928,0.18523 -0.0326,0.0437 -0.0782,0.14593 -0.10146,0.22726 -0.0232,0.0813 -0.0712,0.18745 -0.1065,0.23583 -0.0353,0.0484 -0.0831,0.15348 -0.10616,0.23356 -0.0231,0.0801 -0.0709,0.18831 -0.10624,0.24049 -0.0354,0.0522 -0.0819,0.15442 -0.10335,0.22719 -0.0234,0.0794 -0.0849,0.18526 -0.15361,0.26462 l -0.11457,0.13231 -1.25385,0.005 c -0.72489,0.003 -1.279,-0.005 -1.31347,-0.0192 z m 2.40455,-11.88026 c 0.0937,-0.0158 0.27051,-0.0577 0.393,-0.0931 0.12248,-0.0355 0.30523,-0.0774 0.4061,-0.0933 0.10087,-0.0158 0.23138,-0.0571 0.29002,-0.0917 0.0586,-0.0346 0.18595,-0.0816 0.28292,-0.10429 0.097,-0.0227 0.21994,-0.0715 0.27329,-0.10835 0.0533,-0.0369 0.15901,-0.0854 0.23483,-0.1079 0.0758,-0.0225 0.17014,-0.0677 0.2096,-0.10044 0.0395,-0.0328 0.12402,-0.0803 0.1879,-0.10561 0.0639,-0.0253 0.15078,-0.0754 0.19311,-0.11141 0.0423,-0.036 0.11976,-0.0835 0.17206,-0.10553 0.0523,-0.0221 0.12456,-0.0679 0.16058,-0.10185 0.036,-0.034 0.10185,-0.0802 0.14626,-0.10283 0.0854,-0.0435 0.23732,-0.15984 0.42682,-0.32698 0.14565,-0.12847 0.7952,-0.78504 0.93343,-0.94353 0.20459,-0.23456 0.49629,-0.64016 0.52295,-0.72713 0.0103,-0.0337 0.0523,-0.0998 0.0932,-0.14687 0.0409,-0.0471 0.095,-0.13857 0.12013,-0.20334 0.0251,-0.0648 0.0721,-0.15013 0.10431,-0.1897 0.0322,-0.0396 0.0788,-0.13483 0.10355,-0.21169 0.0247,-0.0769 0.0723,-0.17682 0.10577,-0.22213 0.0334,-0.0453 0.0796,-0.16412 0.10251,-0.26403 0.0229,-0.0999 0.0718,-0.23347 0.10853,-0.29681 0.0403,-0.0695 0.0807,-0.2008 0.10196,-0.33136 0.0193,-0.11892 0.0642,-0.29361 0.0997,-0.38821 0.0407,-0.10831 0.0752,-0.2798 0.0934,-0.46309 0.0491,-0.49587 0.0818,-1.12387 0.068,-1.30698 -0.007,-0.0962 -0.0254,-0.35351 -0.0403,-0.57182 -0.0343,-0.50183 -0.0634,-0.68944 -0.13083,-0.84345 -0.0295,-0.0675 -0.07,-0.22437 -0.09,-0.34867 -0.0226,-0.14091 -0.0615,-0.26952 -0.10331,-0.34162 -0.0369,-0.0636 -0.0799,-0.17916 -0.0956,-0.25681 -0.0157,-0.0777 -0.0627,-0.19822 -0.10458,-0.26794 -0.0418,-0.0697 -0.0945,-0.19078 -0.11702,-0.26902 -0.0225,-0.0782 -0.06,-0.15814 -0.0833,-0.17755 -0.0233,-0.0194 -0.0814,-0.12163 -0.12912,-0.22714 -0.0477,-0.10552 -0.0974,-0.19185 -0.1105,-0.19185 -0.0131,0 -0.0548,-0.0625 -0.0927,-0.13893 -0.0652,-0.13141 -0.15614,-0.26303 -0.32252,-0.46671 -0.0403,-0.0493 -0.0858,-0.11248 -0.10113,-0.14041 -0.0879,-0.15988 -1.00241,-1.08265 -1.16163,-1.17207 -0.0263,-0.0148 -0.0877,-0.0602 -0.13653,-0.10103 -0.17042,-0.14247 -0.37764,-0.28656 -0.46828,-0.32561 -0.0502,-0.0216 -0.1152,-0.062 -0.14436,-0.0897 -0.0292,-0.0277 -0.12365,-0.0817 -0.20996,-0.12002 -0.0863,-0.0383 -0.18052,-0.0914 -0.20934,-0.11795 -0.0288,-0.0265 -0.11674,-0.0673 -0.19538,-0.0906 -0.0786,-0.0233 -0.18475,-0.0716 -0.2358,-0.10725 -0.0511,-0.0357 -0.17454,-0.084 -0.27441,-0.10733 -0.0999,-0.0234 -0.22956,-0.0707 -0.2882,-0.10523 -0.0618,-0.0364 -0.20572,-0.08 -0.34242,-0.10383 -0.12969,-0.0226 -0.30333,-0.065 -0.38586,-0.0944 -0.23485,-0.0834 -0.45309,-0.10572 -1.19925,-0.12278 -0.85892,-0.0196 -1.36459,0.0131 -1.67681,0.10855 -0.12249,0.0374 -0.32881,0.0864 -0.4585,0.10876 -0.14062,0.0243 -0.27993,0.0667 -0.3451,0.10513 -0.0601,0.0355 -0.18981,0.0831 -0.2882,0.1059 -0.0984,0.0228 -0.22197,0.0713 -0.27461,0.10776 -0.0526,0.0365 -0.15285,0.0836 -0.2227,0.10474 -0.0698,0.0211 -0.17416,0.0722 -0.2318,0.1135 -0.0576,0.0413 -0.14807,0.0893 -0.20096,0.10667 -0.0529,0.0174 -0.11113,0.0498 -0.12943,0.0721 -0.0183,0.0223 -0.0988,0.0741 -0.17895,0.11508 -0.0801,0.041 -0.17425,0.10553 -0.20918,0.14338 -0.0349,0.0378 -0.077,0.0688 -0.0935,0.0688 -0.0165,0 -0.0763,0.0393 -0.13298,0.0873 -0.0566,0.048 -0.14018,0.11051 -0.18566,0.13893 -0.24279,0.15171 -1.11046,1.03021 -1.21408,1.22923 -0.019,0.0364 -0.0798,0.11843 -0.13519,0.18234 -0.0554,0.0639 -0.10075,0.1303 -0.10075,0.14754 0,0.0172 -0.0285,0.0584 -0.0634,0.0916 -0.0349,0.0331 -0.0982,0.13364 -0.14063,0.22339 -0.0425,0.0898 -0.0958,0.17881 -0.11861,0.19791 -0.0228,0.0191 -0.0557,0.0784 -0.0731,0.13184 -0.0174,0.0534 -0.0711,0.15502 -0.11924,0.22578 -0.0482,0.0708 -0.0876,0.15028 -0.0876,0.1767 0,0.0264 -0.0415,0.12844 -0.0922,0.22673 -0.0507,0.0983 -0.11015,0.25676 -0.13206,0.35217 -0.0219,0.0954 -0.0643,0.21531 -0.0943,0.26645 -0.0299,0.0512 -0.0764,0.21577 -0.10323,0.36583 -0.0268,0.15005 -0.0789,0.38225 -0.1158,0.516 -0.14145,0.5134 -0.14323,1.96608 -0.003,2.50569 0.0359,0.13826 0.0847,0.36451 0.1084,0.50278 0.0237,0.13826 0.0763,0.32879 0.11696,0.42339 0.0406,0.0946 0.0862,0.23154 0.10128,0.30431 0.0151,0.0728 0.0694,0.21356 0.12071,0.31285 0.0513,0.0993 0.0933,0.20186 0.0933,0.22791 0,0.026 0.0347,0.0914 0.077,0.14527 0.0424,0.0539 0.0961,0.15579 0.11933,0.22653 0.0233,0.0707 0.0607,0.14401 0.0831,0.16282 0.0224,0.0188 0.075,0.10543 0.11671,0.19248 0.0418,0.087 0.0882,0.16595 0.10324,0.17533 0.0268,0.0167 0.10989,0.13234 0.30358,0.42238 0.0535,0.0801 0.1275,0.17695 0.16455,0.21534 0.037,0.0384 0.12041,0.13026 0.18525,0.20416 0.2872,0.32732 0.74374,0.76561 0.89678,0.86093 0.0471,0.0294 0.13207,0.0927 0.1887,0.14065 0.0566,0.048 0.11647,0.0873 0.13298,0.0873 0.0165,0 0.0586,0.0312 0.0935,0.0693 0.0349,0.0381 0.11398,0.0915 0.17567,0.11849 0.0617,0.027 0.15601,0.0837 0.20961,0.12585 0.0536,0.0422 0.13765,0.0901 0.1868,0.10655 0.0492,0.0164 0.12579,0.0577 0.1703,0.0918 0.0445,0.0341 0.14021,0.0817 0.21265,0.10591 0.0725,0.0242 0.17408,0.073 0.22587,0.10854 0.0518,0.0355 0.17323,0.0831 0.26989,0.10578 0.0967,0.0226 0.22527,0.0705 0.28581,0.10632 0.0704,0.0417 0.19955,0.0796 0.3582,0.10522 0.13647,0.022 0.34834,0.071 0.47083,0.10878 0.13733,0.0424 0.33319,0.0773 0.5109,0.0912 0.37414,0.0292 1.75814,0.0109 1.97812,-0.026 z"
         id="path2248"
         sodipodi:nodetypes="ccsscscccccscssccsccccccssccccscscsccssscccccccsccscscscssssssccscsscscssscscscsssssssscssssscsscsscsscsscscssscsssssssssssscssssscccsscscscsscccssscscsssssscsscssssssssscccsssssssssssscsssscssssssssccsssscssssssssssssscsssscsccccssccssssscsccssscssscccscccscccsscccccscscssssscscssssssssccsscscsscsssccsscsscscssccssssccccsccccccscsccscsscsccccssssccccccssssssccscccscsccsccscccsssccsccssccsssssscsccscccscscscsscsscssccsssccsssscccsccsscsscsscscccsssssssssssscssssssscscsccsssccssssscsssscscssssssccccsscccscss" />
    </g>
  </g>
</svg>
